<svg xmlns="http://www.w3.org/2000/svg" viewBox="0 0 50 50"><defs><style>.cls-1{fill:#fff;}</style></defs><title>btn_searchname_w</title><g id="btn_searchname_w"><path class="cls-1" d="M19,28.92c3.77,0,6.82-3.74,6.82-8.36S22.8,12.19,19,12.19s-6.81,3.75-6.81,8.37S15.27,28.92,19,28.92Z"/><path class="cls-1" d="M41.9,31.49a9.6,9.6,0,0,0-3.22-2.29,6,6,0,0,1-4.88,2.73,6.18,6.18,0,0,1-4.6-2.3,13.39,13.39,0,0,0-2.3-2,14.43,14.43,0,0,0-1.6-.85A7.72,7.72,0,0,1,19,30.26a7.71,7.71,0,0,1-6.26-3.51,12.61,12.61,0,0,0-4.14,2.94,8.93,8.93,0,0,0-2.29,7.5.78.78,0,0,0,.79.62H43.07a.63.63,0,0,0,.62-.48A7,7,0,0,0,41.9,31.49Z"/><path class="cls-1" d="M33.8,30.89c2.93,0,5.31-2.92,5.31-6.52s-2.38-6.51-5.31-6.51-5.31,2.92-5.31,6.51S30.87,30.89,33.8,30.89Z"/></g></svg>