<svg xmlns="http://www.w3.org/2000/svg" viewBox="0 0 50 50"><defs><style>.cls-1{fill:#333;}</style></defs><title>btn_sendimg_b</title><g id="btn_sendimg_b"><path class="cls-1" d="M22.15,19.25l7.44-5.2,4.31,5.2h3.42L33.75,9.52A1.27,1.27,0,0,0,32,8.7L8.55,17.25A1.33,1.33,0,0,0,7.81,19l3.71,10.26v-5.5A4.55,4.55,0,0,1,16,19.25Z"/><path class="cls-1" d="M41,22.3H16a1.35,1.35,0,0,0-1.33,1.41V40A1.39,1.39,0,0,0,16,41.4H41A1.34,1.34,0,0,0,42.29,40V23.71A1.39,1.39,0,0,0,41,22.3Zm-19.4,3.87A1.78,1.78,0,1,1,19.77,28,1.72,1.72,0,0,1,21.56,26.17ZM39,37.91H18.29v-3L21.48,32l4.76,1.41,4.46-4.61L39,32.33,39,37.91Z"/></g></svg>