<svg xmlns="http://www.w3.org/2000/svg" viewBox="0 0 50.01 50"><defs><style>.cls-1{fill:#a7a7a7;opacity:0;}.cls-2{fill:gray;}</style></defs><title>btn_good</title><g id="btn_good"><rect class="cls-1" width="50" height="50"/><path class="cls-2" d="M44.29,24.33a2.63,2.63,0,0,0-1.95-2.81H29.78s-.85-1.09-.12-3.41.86-5.73.25-7.19S28.2,6.77,25.39,6.65A2.71,2.71,0,0,0,23.2,8.23V13.6S18,23,17.22,23.11s-3.66.49-3.66.49V20.88H8.05V43h5.51V40.3h.86s6.22,3.05,7.44,3.05H37.1a2.93,2.93,0,0,0,2.2-2.92A3.44,3.44,0,0,0,38,37.87s3.3-.25,3.3-3c0-1.22-1.59-2.2-1.59-2.2s3.05-.61,2.93-3.17A4.72,4.72,0,0,0,41.49,27S44.17,26.52,44.29,24.33Z"/></g></svg>