<svg xmlns="http://www.w3.org/2000/svg" viewBox="0 0 50 50"><defs><style>.cls-1{fill:#929292;opacity:0;}.cls-2{fill:gray;}</style></defs><title>btn_edit</title><g id="btn_edit"><rect class="cls-1" width="50.01" height="50"/><g id="pen"><polygon class="cls-2" points="8.2 41.77 17.51 37.35 12.76 32.6 8.2 41.77"/><path class="cls-2" d="M41.38,10.57,39.45,8.65a1.45,1.45,0,0,0-2,0l-2,2a1.43,1.43,0,0,0-2,0l-.75.75H28.14l-8.38,8.37v2l0,0,8.94-8.93h2.52l-.64.64L13.45,30.68l5.9,5.9,20-20a1.44,1.44,0,0,0,0-2l2-2A1.46,1.46,0,0,0,41.38,10.57Z"/></g></g></svg>