<svg xmlns="http://www.w3.org/2000/svg" viewBox="0 0 50 50"><defs><style>.cls-1{fill:#919191;opacity:0;}.cls-2{fill:gray;}</style></defs><title>btn_del</title><g id="btn_del"><rect class="cls-1" width="50.01" height="50"/><path class="cls-2" d="M31.2,40.06H18.31a1.94,1.94,0,0,1-1.93-1.76l-2-17.82a2,2,0,0,1,1.93-2.13H33.67a2,2,0,0,1,1.93,2.17L33.13,38.35A2,2,0,0,1,31.2,40.06Z"/><path class="cls-2" d="M21.36,9.94h7.29a2.53,2.53,0,0,1,2.53,2.53v1.36a0,0,0,0,1,0,0H18.83a0,0,0,0,1,0,0V12.47A2.53,2.53,0,0,1,21.36,9.94Z"/><rect class="cls-2" x="13.28" y="13.32" width="23.45" height="3.65" rx="1.31" ry="1.31"/></g></svg>