<svg xmlns="http://www.w3.org/2000/svg" viewBox="0 0 50 50"><defs><style>.cls-1,.cls-2{fill:#ff7150;}.cls-1{opacity:0;}</style></defs><title>btn_menu_swap_o</title><g id="btn_menu_exc_o"><rect class="cls-1" width="50" height="50"/><path class="cls-2" d="M14,29.61l-.56-1a2.46,2.46,0,0,0-3.26-.95L8.1,28.8a2.46,2.46,0,0,0-1,3.35l5.37,10a2.45,2.45,0,0,0,3.29,1l1.79-.92A2.47,2.47,0,0,0,18.6,39l-.21-.41,2.13-2,10.37.08a4.62,4.62,0,0,0,2.8-.91l9-6.73A1.29,1.29,0,0,0,43,27.17h0a1.28,1.28,0,0,0-1.76-.31L33,31l-7-2.31.28-2.49h7.51a1.37,1.37,0,0,0,1.35-1.62h0A1.35,1.35,0,0,0,34,23.42a48.07,48.07,0,0,0-7.25-.5c-4,.09-7.21,1.11-10.17,4.25Z"/><polygon class="cls-2" points="13.77 24.4 18.2 22.37 18.2 10.72 24.31 10.72 24.31 17.56 28.56 15.15 32.54 17.93 32.54 10.72 38.36 10.72 38.36 22.27 43.22 24.4 43.22 6.56 13.77 6.56 13.77 24.4"/></g></svg>