<svg xmlns="http://www.w3.org/2000/svg" viewBox="0 0 25 25"><defs><style>.cls-1{fill:#fff;}</style></defs><title>btn_guarantee_w</title><g id="btn_guarantee_w"><path class="cls-1" d="M14.86,2.71a1.72,1.72,0,0,1,2,1.91,2.55,2.55,0,0,1-2.79,2.43c-1.48,0-2.14-.73-2.14-1.91A2.74,2.74,0,0,1,14.86,2.71Zm-4,19.58c-1,0-1.84-.66-1.1-3.46l1.17-5c.22-.81.22-1.11,0-1.11a9.16,9.16,0,0,0-2.5,1.11l-.51-.89c2.57-2.13,5.52-3.38,6.77-3.38,1,0,1.25,1.25.73,3.16L14.05,18c-.22,1-.15,1.25.07,1.25A5.54,5.54,0,0,0,16.48,18l.58.81A10.24,10.24,0,0,1,10.88,22.29Z"/></g></svg>