<svg xmlns="http://www.w3.org/2000/svg" viewBox="0 0 60 60"><defs><style>.cls-1{opacity:0.2;}.cls-2{fill:#ff7150;}</style></defs><title>btn_play_o</title><g id="btn_play_o"><path class="cls-1" d="M30,1.57A28.43,28.43,0,1,0,58.48,30,28.49,28.49,0,0,0,30,1.57Z"/><path class="cls-2" d="M30,60A30,30,0,1,1,60,30,30,30,0,0,1,30,60ZM30,1.57A28.43,28.43,0,1,0,58.48,30,28.49,28.49,0,0,0,30,1.57Z"/><path class="cls-2" d="M43.87,29,23.26,17.06a1.2,1.2,0,0,0-1.8,1V41.9a1.2,1.2,0,0,0,1.8,1L43.87,31A1.2,1.2,0,0,0,43.87,29Z"/></g></svg>