<svg xmlns="http://www.w3.org/2000/svg" viewBox="0 0 40 40"><defs><style>.cls-1{fill:#fff;}.cls-2{fill:#333;}</style></defs><title>btn_report_b</title><g id="btn_report_b"><ellipse class="cls-1" cx="20" cy="20" rx="15" ry="15.1"/><path class="cls-2" d="M20,27.11c-5.37,0-9.62-6.69-9.8-7L10.12,20l.08-.13c.18-.29,4.43-7,9.8-7s9.62,6.69,9.8,7l.08.13-.08.13C29.62,20.42,25.37,27.11,20,27.11ZM10.71,20c.63.95,4.6,6.61,9.29,6.61S28.66,21,29.29,20c-.63-.95-4.6-6.61-9.29-6.61S11.34,19.05,10.71,20Z"/><path class="cls-2" d="M20,14.78A5.22,5.22,0,1,0,25.22,20,5.22,5.22,0,0,0,20,14.78Zm.93,8a.73.73,0,0,1-.69.7H19.8a.73.73,0,0,1-.7-.68v-.22a.72.72,0,0,1,.62-.68,4.07,4.07,0,0,1,.5,0,.7.7,0,0,1,.71.68s0,.06,0,.1S20.93,22.74,20.93,22.78Zm-.5-1.4a5.36,5.36,0,0,1-.9,0,.29.29,0,0,1-.27-.28c-.14-1.51-.22-3-.23-4.42a2.29,2.29,0,0,1,.88-.14,6,6,0,0,1,1.06.1c0,1.93-.13,3.42-.26,4.49A.31.31,0,0,1,20.43,21.38Z"/></g></svg>