<svg xmlns="http://www.w3.org/2000/svg" viewBox="0 0 50 50"><defs><style>.cls-1,.cls-2{fill:#ff7150;}.cls-2{opacity:0;}</style></defs><title>btn_menu_like_o</title><g id="btn_menu_like_o"><path class="cls-1" d="M25,39a6.37,6.37,0,0,1-4.53-1.88,1.25,1.25,0,0,1,0-1.77,1.27,1.27,0,0,1,1.77,0,4,4,0,0,0,5.53,0l13.41-13.4a4.94,4.94,0,1,0-7-7l-17,17a1.29,1.29,0,0,1-1.77,0L7.06,23.71A7.44,7.44,0,1,1,17.57,13.19L22.37,18a1.25,1.25,0,0,1-1.77,1.77L15.81,15a4.94,4.94,0,0,0-7,7l7.43,7.43L32.43,13.19A7.44,7.44,0,0,1,42.94,23.71l-13.4,13.4A6.38,6.38,0,0,1,25,39Z"/><rect class="cls-2" width="50" height="50"/></g></svg>