<svg xmlns="http://www.w3.org/2000/svg" viewBox="0 0 50 50"><defs><style>.cls-1{fill:none;}.cls-2{fill:#fff;}</style></defs><title>btn_sendimg_w</title><g id="btn_sendimg_w"><rect class="cls-1" width="50" height="50" rx="25" ry="25"/><path class="cls-2" d="M20.16,18.25l8-5.62,4.65,5.62h3.69L32.68,7.73a1.37,1.37,0,0,0-1.85-.88L5.47,16.08A1.45,1.45,0,0,0,4.66,18l4,11.08V23.15a4.9,4.9,0,0,1,4.81-4.9Z"/><path class="cls-2" d="M40.47,21.54h-27a1.46,1.46,0,0,0-1.44,1.53V40.65a1.5,1.5,0,0,0,1.44,1.52h27a1.45,1.45,0,0,0,1.44-1.52V23.07A1.51,1.51,0,0,0,40.47,21.54ZM19.52,25.72a1.93,1.93,0,1,1-1.93,1.92A1.85,1.85,0,0,1,19.52,25.72ZM38.38,38.4H16V35.19l3.46-3.13,5.13,1.52,4.82-5,8.91,3.78.08,6Z"/></g></svg>