<svg xmlns="http://www.w3.org/2000/svg" viewBox="0 0 50 50"><defs><style>.cls-1{fill:#919191;opacity:0;}.cls-2{fill:gray;}</style></defs><title>btn_report</title><g id="btn_report"><rect class="cls-1" width="50.01" height="50"/><path class="cls-2" d="M25,39.22c-10.75,0-19.25-13.39-19.6-14L5.23,25l.17-.27c.35-.57,8.85-13.95,19.6-13.95s19.25,13.38,19.6,14l.17.27-.17.26C44.25,25.83,35.75,39.22,25,39.22ZM6.42,25C7.68,26.89,15.61,38.22,25,38.22S42.32,26.89,43.58,25C42.32,23.11,34.39,11.78,25,11.78S7.68,23.11,6.42,25Z"/><path class="cls-2" d="M25,14.56A10.44,10.44,0,1,0,35.44,25,10.45,10.45,0,0,0,25,14.56Zm1.87,16A1.47,1.47,0,0,1,25.47,32H24.6a1.44,1.44,0,0,1-1.4-1.35v-.44a1.43,1.43,0,0,1,1.23-1.36,6.9,6.9,0,0,1,1-.07,1.42,1.42,0,0,1,1.42,1.37v.46Zm-1-2.81a10.65,10.65,0,0,1-1.79,0,.63.63,0,0,1-.54-.57q-.43-4.52-.46-8.85A4.74,4.74,0,0,1,24.82,18a11.39,11.39,0,0,1,2.12.22c-.09,3.85-.26,6.84-.53,9A.61.61,0,0,1,25.85,27.76Z"/></g></svg>