<svg xmlns="http://www.w3.org/2000/svg" viewBox="0 0 50 50"><defs><style>.cls-1,.cls-2{fill:#ff7150;}.cls-1{opacity:0;}</style></defs><title>btn_signout_o</title><g id="btn_signout_o"><rect class="cls-1" width="50" height="50"/><path class="cls-2" d="M28.72,32.63v1.16a3,3,0,0,1-3,3H18.45a3,3,0,0,1-3-3V16.2a3,3,0,0,1,3-3h7.23a3,3,0,0,1,3,3v1.16H33.1V16.2a7.4,7.4,0,0,0-7.42-7.41H18.45A7.39,7.39,0,0,0,11,16.2V33.79a7.47,7.47,0,0,0,7.41,7.5h7.23a7.4,7.4,0,0,0,7.42-7.41V32.72H28.72Z"/><polygon class="cls-2" points="36.04 31.65 43.54 25.13 36.04 18.52 36.04 22.36 36.04 22.72 20.68 22.72 20.68 27.54 36.04 27.54 36.04 27.9 36.04 31.65"/></g></svg>