<svg xmlns="http://www.w3.org/2000/svg" viewBox="0 0 100 50"><defs><style>.cls-1{fill:#ff7150;}.cls-2,.cls-3{fill:#fff;}.cls-2{opacity:0.15;}</style></defs><title>btn_article</title><g id="btn_article"><path class="cls-1" d="M25,49.47A24.47,24.47,0,1,1,49.5,25,24.51,24.51,0,0,1,25,49.47ZM25,1.56A23.44,23.44,0,1,0,48.47,25,23.49,23.49,0,0,0,25,1.56Z"/><circle class="cls-1" cx="15.1" cy="4.49" r="0.51"/><circle class="cls-1" cx="11.7" cy="6.51" r="0.51"/><circle class="cls-1" cx="8.69" cy="9.09" r="0.51"/><circle class="cls-1" cx="6.18" cy="12.15" r="0.51"/><circle class="cls-1" cx="4.25" cy="15.6" r="0.51"/><circle class="cls-1" cx="2.94" cy="19.33" r="0.51"/><circle class="cls-1" cx="2.29" cy="23.23" r="0.51"/><circle class="cls-1" cx="2.34" cy="27.19" r="0.51"/><circle class="cls-1" cx="3.07" cy="31.07" r="0.51"/><circle class="cls-1" cx="4.47" cy="34.77" r="0.51"/><circle class="cls-1" cx="6.49" cy="38.18" r="0.51"/><circle class="cls-1" cx="9.07" cy="41.17" r="0.51"/><circle class="cls-1" cx="12.14" cy="43.68" r="0.51"/><circle class="cls-1" cx="15.59" cy="45.62" r="0.51"/><circle class="cls-1" cx="19.32" cy="46.93" r="0.51"/><circle class="cls-1" cx="23.23" cy="47.57" r="0.51"/><circle class="cls-1" cx="27.19" cy="47.52" r="0.51"/><circle class="cls-1" cx="31.08" cy="46.79" r="0.51"/><circle class="cls-1" cx="34.78" cy="45.39" r="0.51"/><circle class="cls-1" cx="38.19" cy="43.37" r="0.51"/><circle class="cls-1" cx="41.19" cy="40.8" r="0.51"/><circle class="cls-1" cx="43.7" cy="37.74" r="0.51"/><circle class="cls-1" cx="45.64" cy="34.29" r="0.51"/><circle class="cls-1" cx="46.95" cy="30.56" r="0.51"/><circle class="cls-1" cx="47.59" cy="26.65" r="0.51"/><circle class="cls-1" cx="47.54" cy="22.7" r="0.51"/><circle class="cls-1" cx="46.81" cy="18.81" r="0.51"/><circle class="cls-1" cx="45.41" cy="15.11" r="0.51"/><circle class="cls-1" cx="43.39" cy="11.71" r="0.51"/><circle class="cls-1" cx="40.81" cy="8.71" r="0.51"/><circle class="cls-1" cx="37.75" cy="6.21" r="0.51"/><circle class="cls-1" cx="34.3" cy="4.27" r="0.51"/><circle class="cls-1" cx="30.56" cy="2.96" r="0.51"/><circle class="cls-1" cx="26.66" cy="2.32" r="0.51"/><circle class="cls-1" cx="22.7" cy="2.37" r="0.51"/><circle class="cls-1" cx="18.81" cy="3.1" r="0.51"/><rect class="cls-1" x="15.78" y="32" width="18.45" height="2.05"/><rect class="cls-1" x="17.14" y="25.17" width="6.83" height="6.14"/><rect class="cls-1" x="18.51" y="17.67" width="6.15" height="6.14"/><rect class="cls-1" x="26.71" y="19.71" width="6.15" height="11.6"/><path class="cls-2" d="M8.33,41.06a23.31,23.31,0,0,0,33-32.94s6.44,15.12-4.56,28.2S8.33,41.06,8.33,41.06Z"/></g><g id="btn_article_action"><ellipse class="cls-1" cx="75" cy="25" rx="24.5" ry="24.47"/><circle class="cls-3" cx="64.89" cy="4.05" r="0.52"/><circle class="cls-3" cx="61.41" cy="6.11" r="0.52"/><circle class="cls-3" cx="58.34" cy="8.75" r="0.52"/><circle class="cls-3" cx="55.78" cy="11.87" r="0.52"/><circle class="cls-3" cx="53.8" cy="15.4" r="0.52"/><circle class="cls-3" cx="52.46" cy="19.21" r="0.52"/><circle class="cls-3" cx="51.8" cy="23.2" r="0.52"/><circle class="cls-3" cx="51.85" cy="27.23" r="0.52"/><circle class="cls-3" cx="52.6" cy="31.21" r="0.52"/><circle class="cls-3" cx="54.03" cy="34.99" r="0.52"/><circle class="cls-3" cx="56.09" cy="38.46" r="0.52"/><circle class="cls-3" cx="58.73" cy="41.52" r="0.52"/><circle class="cls-3" cx="61.86" cy="44.08" r="0.52"/><circle class="cls-3" cx="65.38" cy="46.06" r="0.52"/><circle class="cls-3" cx="69.2" cy="47.4" r="0.52"/><circle class="cls-3" cx="73.19" cy="48.05" r="0.52"/><circle class="cls-3" cx="77.24" cy="48.01" r="0.52"/><circle class="cls-3" cx="81.21" cy="47.26" r="0.52"/><circle class="cls-3" cx="85" cy="45.83" r="0.52"/><circle class="cls-3" cx="88.47" cy="43.77" r="0.52"/><circle class="cls-3" cx="91.54" cy="41.14" r="0.52"/><circle class="cls-3" cx="94.1" cy="38.01" r="0.52"/><circle class="cls-3" cx="96.09" cy="34.49" r="0.52"/><circle class="cls-3" cx="97.42" cy="30.68" r="0.52"/><circle class="cls-3" cx="98.08" cy="26.69" r="0.52"/><circle class="cls-3" cx="98.03" cy="22.65" r="0.52"/><circle class="cls-3" cx="97.28" cy="18.68" r="0.52"/><circle class="cls-3" cx="95.85" cy="14.9" r="0.52"/><circle class="cls-3" cx="93.79" cy="11.42" r="0.52"/><circle class="cls-3" cx="91.15" cy="8.36" r="0.52"/><circle class="cls-3" cx="88.02" cy="5.8" r="0.52"/><circle class="cls-3" cx="84.5" cy="3.82" r="0.52"/><circle class="cls-3" cx="80.68" cy="2.48" r="0.52"/><circle class="cls-3" cx="76.69" cy="1.83" r="0.52"/><circle class="cls-3" cx="72.65" cy="1.88" r="0.52"/><circle class="cls-3" cx="68.67" cy="2.63" r="0.52"/><rect class="cls-3" x="65.58" y="32.15" width="18.85" height="2.09"/><rect class="cls-3" x="66.97" y="25.18" width="6.98" height="6.28"/><rect class="cls-3" x="68.37" y="17.51" width="6.28" height="6.28"/><rect class="cls-3" x="76.75" y="19.6" width="6.28" height="11.85"/><path class="cls-2" d="M58,41.41A23.8,23.8,0,0,0,91.66,7.76S98.24,23.2,87,36.56,58,41.41,58,41.41Z"/></g></svg>