<svg xmlns="http://www.w3.org/2000/svg" viewBox="0 0 50 50"><defs><style>.cls-1{fill:gray;}</style></defs><title>btn_mydetail</title><g id="btn_mydetail"><path class="cls-1" d="M35.36,33.91c-4.87-1.76-6.42-3.32-6.42-6.53,0-2,1.45-1.34,2.17-4.87.31-1.45,1.56,0,1.87-3.41,0-1.35-.73-1.66-.73-1.66a29.58,29.58,0,0,0,.52-3.52c.21-1.87-1.14-6.84-7.87-6.84S16.82,12,17,13.92a32.06,32.06,0,0,0,.52,3.52s-.72.31-.72,1.66c.2,3.31,1.55,1.86,1.86,3.41.62,3.53,2.18,2.9,2.18,4.87,0,3.21-1.56,4.77-6.53,6.53s-8.08,3.62-8.08,4.87v4.14h37.5V38.78C43.54,37.53,40.33,35.67,35.36,33.91Z"/></g></svg>