<svg xmlns="http://www.w3.org/2000/svg" viewBox="0 0 50 50"><defs><style>.cls-1{fill:#60a795;}.cls-2,.cls-3{fill:#fff;}.cls-3{opacity:0.15;}</style></defs><title>btn_wish_action</title><g id="btn_wish_action"><ellipse class="cls-1" cx="25" cy="25" rx="24.5" ry="24.47"/><circle class="cls-2" cx="14.89" cy="4.05" r="0.52"/><circle class="cls-2" cx="11.41" cy="6.11" r="0.52"/><circle class="cls-2" cx="8.34" cy="8.75" r="0.52"/><circle class="cls-2" cx="5.78" cy="11.87" r="0.52"/><circle class="cls-2" cx="3.8" cy="15.4" r="0.52"/><circle class="cls-2" cx="2.46" cy="19.21" r="0.52"/><circle class="cls-2" cx="1.8" cy="23.19" r="0.52"/><circle class="cls-2" cx="1.85" cy="27.23" r="0.52"/><circle class="cls-2" cx="2.6" cy="31.2" r="0.52"/><circle class="cls-2" cx="4.03" cy="34.98" r="0.52"/><circle class="cls-2" cx="6.09" cy="38.46" r="0.52"/><circle class="cls-2" cx="8.73" cy="41.52" r="0.52"/><circle class="cls-2" cx="11.86" cy="44.08" r="0.52"/><circle class="cls-2" cx="15.38" cy="46.06" r="0.52"/><circle class="cls-2" cx="19.2" cy="47.4" r="0.52"/><circle class="cls-2" cx="23.19" cy="48.05" r="0.52"/><circle class="cls-2" cx="27.24" cy="48.01" r="0.52"/><circle class="cls-2" cx="31.21" cy="47.26" r="0.52"/><circle class="cls-2" cx="35" cy="45.83" r="0.52"/><circle class="cls-2" cx="38.47" cy="43.77" r="0.52"/><circle class="cls-2" cx="41.54" cy="41.14" r="0.52"/><circle class="cls-2" cx="44.1" cy="38.01" r="0.52"/><circle class="cls-2" cx="46.09" cy="34.49" r="0.52"/><circle class="cls-2" cx="47.42" cy="30.68" r="0.52"/><circle class="cls-2" cx="48.08" cy="26.69" r="0.52"/><circle class="cls-2" cx="48.03" cy="22.65" r="0.52"/><circle class="cls-2" cx="47.28" cy="18.68" r="0.52"/><circle class="cls-2" cx="45.85" cy="14.9" r="0.52"/><circle class="cls-2" cx="43.79" cy="11.42" r="0.52"/><circle class="cls-2" cx="41.15" cy="8.36" r="0.52"/><circle class="cls-2" cx="38.02" cy="5.8" r="0.52"/><circle class="cls-2" cx="34.5" cy="3.82" r="0.52"/><circle class="cls-2" cx="30.68" cy="2.48" r="0.52"/><circle class="cls-2" cx="26.69" cy="1.83" r="0.52"/><circle class="cls-2" cx="22.65" cy="1.88" r="0.52"/><circle class="cls-2" cx="18.67" cy="2.63" r="0.52"/><path class="cls-2" d="M25,21.46a.62.62,0,0,1-.62-.62V16.79a.62.62,0,1,1,1.24,0v4.05A.62.62,0,0,1,25,21.46Z"/><path class="cls-2" d="M23.11,22.24a.62.62,0,0,1-.44-.18L19.8,19.2a.62.62,0,0,1,.88-.88l2.87,2.86a.63.63,0,0,1,0,.88A.62.62,0,0,1,23.11,22.24Z"/><path class="cls-2" d="M22.32,24.13H18.27a.62.62,0,1,1,0-1.24h4.05a.62.62,0,1,1,0,1.24Z"/><path class="cls-2" d="M20.24,28.88a.62.62,0,0,1-.44-1.05L22.67,25a.62.62,0,0,1,.88.88L20.68,28.7A.62.62,0,0,1,20.24,28.88Z"/><path class="cls-2" d="M25,34.18a.62.62,0,0,1-.62-.62V26.18a.62.62,0,0,1,1.24,0v7.38A.62.62,0,0,1,25,34.18Z"/><path class="cls-2" d="M29.76,28.88a.62.62,0,0,1-.44-.18l-2.87-2.86a.62.62,0,0,1,.88-.88l2.87,2.87a.62.62,0,0,1-.44,1.05Z"/><path class="cls-2" d="M31.73,24.13H27.67a.62.62,0,1,1,0-1.24h4.06a.62.62,0,1,1,0,1.24Z"/><path class="cls-2" d="M26.89,22.24a.62.62,0,0,1-.44-.18.63.63,0,0,1,0-.88l2.87-2.86a.62.62,0,0,1,.88.88l-2.87,2.86A.62.62,0,0,1,26.89,22.24Z"/><path class="cls-3" d="M8.23,41.41A23.8,23.8,0,0,0,41.91,7.76s6.59,15.44-4.65,28.8S8.23,41.41,8.23,41.41Z"/></g></svg>