<svg xmlns="http://www.w3.org/2000/svg" viewBox="0 0 50 50"><defs><style>.cls-1,.cls-2{fill:#ff7150;}.cls-1{opacity:0;}</style></defs><title>btn_mysetting_o</title><g id="btn_mysetting_o"><rect class="cls-1" width="50" height="50"/><g id="cogwheel"><path class="cls-2" d="M41.35,27.12a15.06,15.06,0,0,0,0-4.24L37,21.78a12.1,12.1,0,0,0-1.24-3L38.06,15a16.5,16.5,0,0,0-3-3l-3.84,2.31a12.1,12.1,0,0,0-3-1.24l-1.1-4.36a15.06,15.06,0,0,0-4.24,0L21.78,13a12,12,0,0,0-3,1.24L15,11.94a16.76,16.76,0,0,0-3,3l2.31,3.85a12.1,12.1,0,0,0-1.24,3l-4.36,1.1a15.06,15.06,0,0,0,0,4.24L13,28.22a12.1,12.1,0,0,0,1.24,3l-2.31,3.84a16.5,16.5,0,0,0,3,3l3.84-2.31a12.1,12.1,0,0,0,3,1.24l1.1,4.36a15.06,15.06,0,0,0,4.24,0L28.22,37a12.49,12.49,0,0,0,3-1.24l3.85,2.31a16.76,16.76,0,0,0,3-3l-2.31-3.84a12.1,12.1,0,0,0,1.24-3ZM25,30.77A5.77,5.77,0,1,1,30.77,25,5.77,5.77,0,0,1,25,30.77Z"/></g></g></svg>