<svg xmlns="http://www.w3.org/2000/svg" viewBox="0 0 50 50"><defs><style>.cls-1{fill:#ff7150;}.cls-2,.cls-3{fill:#fff;}.cls-3{opacity:0.15;}</style></defs><title>btn_article_action</title><g id="btn_article_action"><ellipse class="cls-1" cx="25" cy="25" rx="24.5" ry="24.47"/><circle class="cls-2" cx="14.89" cy="4.05" r="0.52"/><circle class="cls-2" cx="11.41" cy="6.11" r="0.52"/><circle class="cls-2" cx="8.34" cy="8.75" r="0.52"/><circle class="cls-2" cx="5.78" cy="11.87" r="0.52"/><circle class="cls-2" cx="3.8" cy="15.4" r="0.52"/><circle class="cls-2" cx="2.46" cy="19.21" r="0.52"/><circle class="cls-2" cx="1.8" cy="23.19" r="0.52"/><circle class="cls-2" cx="1.85" cy="27.23" r="0.52"/><circle class="cls-2" cx="2.6" cy="31.2" r="0.52"/><circle class="cls-2" cx="4.03" cy="34.98" r="0.52"/><circle class="cls-2" cx="6.09" cy="38.46" r="0.52"/><circle class="cls-2" cx="8.73" cy="41.52" r="0.52"/><circle class="cls-2" cx="11.86" cy="44.08" r="0.52"/><circle class="cls-2" cx="15.38" cy="46.06" r="0.52"/><circle class="cls-2" cx="19.2" cy="47.4" r="0.52"/><circle class="cls-2" cx="23.19" cy="48.05" r="0.52"/><circle class="cls-2" cx="27.24" cy="48.01" r="0.52"/><circle class="cls-2" cx="31.21" cy="47.26" r="0.52"/><circle class="cls-2" cx="35" cy="45.83" r="0.52"/><circle class="cls-2" cx="38.47" cy="43.77" r="0.52"/><circle class="cls-2" cx="41.54" cy="41.14" r="0.52"/><circle class="cls-2" cx="44.1" cy="38.01" r="0.52"/><circle class="cls-2" cx="46.09" cy="34.49" r="0.52"/><circle class="cls-2" cx="47.42" cy="30.68" r="0.52"/><circle class="cls-2" cx="48.08" cy="26.69" r="0.52"/><circle class="cls-2" cx="48.03" cy="22.65" r="0.52"/><circle class="cls-2" cx="47.28" cy="18.68" r="0.52"/><circle class="cls-2" cx="45.85" cy="14.9" r="0.52"/><circle class="cls-2" cx="43.79" cy="11.42" r="0.52"/><circle class="cls-2" cx="41.15" cy="8.36" r="0.52"/><circle class="cls-2" cx="38.02" cy="5.8" r="0.52"/><circle class="cls-2" cx="34.5" cy="3.82" r="0.52"/><circle class="cls-2" cx="30.68" cy="2.48" r="0.52"/><circle class="cls-2" cx="26.69" cy="1.83" r="0.52"/><circle class="cls-2" cx="22.65" cy="1.88" r="0.52"/><circle class="cls-2" cx="18.67" cy="2.63" r="0.52"/><rect class="cls-2" x="15.58" y="32.15" width="18.85" height="2.09"/><rect class="cls-2" x="16.97" y="25.18" width="6.98" height="6.28"/><rect class="cls-2" x="18.37" y="17.51" width="6.28" height="6.28"/><rect class="cls-2" x="26.75" y="19.6" width="6.28" height="11.85"/><path class="cls-3" d="M8,41.41A23.8,23.8,0,0,0,41.66,7.76S48.24,23.2,37,36.56,8,41.41,8,41.41Z"/></g></svg>