<svg xmlns="http://www.w3.org/2000/svg" viewBox="0 0 50 50"><defs><style>.cls-1,.cls-2{fill:gray;}.cls-1{opacity:0;}</style></defs><title>btn_menu_deal</title><g id="btn_menu_deal"><rect class="cls-1" width="50" height="50"/><path class="cls-2" d="M16.52,13.81H24.1a0,0,0,0,1,0,0v13.6a0,0,0,0,1,0,0H16.52a1.59,1.59,0,0,1-1.59-1.59V15.4a1.59,1.59,0,0,1,1.59-1.59Z" transform="translate(11.35 -6.57) rotate(26.73)"/><rect class="cls-2" x="19.1" y="10.95" width="9.17" height="2.75" rx="0.91" ry="0.91" transform="translate(8.07 -9.33) rotate(26.73)"/><rect class="cls-2" x="10.68" y="27.68" width="9.17" height="2.75" rx="0.91" ry="0.91" transform="translate(14.7 -3.76) rotate(26.73)"/><path class="cls-2" d="M43.93,33.1h0a2.67,2.67,0,0,1-3.68,1.14l-17.11-10,1.48-2.94,18,8.13A2.66,2.66,0,0,1,43.93,33.1Z"/><rect class="cls-2" x="5.78" y="38.05" width="19.41" height="2.6"/><path class="cls-2" d="M9.4,34.37H21.57a1.71,1.71,0,0,1,1.71,1.71V37a0,0,0,0,1,0,0H7.69a0,0,0,0,1,0,0v-.89A1.71,1.71,0,0,1,9.4,34.37Z"/></g></svg>