<svg xmlns="http://www.w3.org/2000/svg" viewBox="0 0 100 50"><defs><style>.cls-1{fill:#60a896;}.cls-2,.cls-4{fill:#fff;}.cls-2{opacity:0.15;}.cls-3{fill:#60a795;}</style></defs><title>btn_wish</title><g id="btn_wish"><path class="cls-1" d="M25,49.47A24.47,24.47,0,1,1,49.5,25,24.51,24.51,0,0,1,25,49.47ZM25,1.56A23.44,23.44,0,1,0,48.47,25,23.49,23.49,0,0,0,25,1.56Z"/><circle class="cls-1" cx="15.1" cy="4.49" r="0.51"/><circle class="cls-1" cx="11.7" cy="6.51" r="0.51"/><circle class="cls-1" cx="8.69" cy="9.09" r="0.51"/><circle class="cls-1" cx="6.18" cy="12.15" r="0.51"/><circle class="cls-1" cx="4.25" cy="15.6" r="0.51"/><circle class="cls-1" cx="2.94" cy="19.33" r="0.51"/><circle class="cls-1" cx="2.29" cy="23.23" r="0.51"/><circle class="cls-1" cx="2.34" cy="27.19" r="0.51"/><circle class="cls-1" cx="3.07" cy="31.07" r="0.51"/><circle class="cls-1" cx="4.47" cy="34.77" r="0.51"/><circle class="cls-1" cx="6.49" cy="38.18" r="0.51"/><circle class="cls-1" cx="9.07" cy="41.17" r="0.51"/><circle class="cls-1" cx="12.14" cy="43.68" r="0.51"/><circle class="cls-1" cx="15.59" cy="45.62" r="0.51"/><circle class="cls-1" cx="19.32" cy="46.93" r="0.51"/><circle class="cls-1" cx="23.23" cy="47.57" r="0.51"/><circle class="cls-1" cx="27.19" cy="47.52" r="0.51"/><circle class="cls-1" cx="31.08" cy="46.79" r="0.51"/><circle class="cls-1" cx="34.78" cy="45.39" r="0.51"/><circle class="cls-1" cx="38.19" cy="43.37" r="0.51"/><circle class="cls-1" cx="41.19" cy="40.8" r="0.51"/><circle class="cls-1" cx="43.7" cy="37.74" r="0.51"/><circle class="cls-1" cx="45.64" cy="34.29" r="0.51"/><circle class="cls-1" cx="46.95" cy="30.56" r="0.51"/><circle class="cls-1" cx="47.59" cy="26.65" r="0.51"/><circle class="cls-1" cx="47.54" cy="22.7" r="0.51"/><circle class="cls-1" cx="46.81" cy="18.81" r="0.51"/><circle class="cls-1" cx="45.41" cy="15.11" r="0.51"/><circle class="cls-1" cx="43.39" cy="11.71" r="0.51"/><circle class="cls-1" cx="40.81" cy="8.71" r="0.51"/><circle class="cls-1" cx="37.75" cy="6.21" r="0.51"/><circle class="cls-1" cx="34.3" cy="4.27" r="0.51"/><circle class="cls-1" cx="30.56" cy="2.96" r="0.51"/><circle class="cls-1" cx="26.66" cy="2.32" r="0.51"/><circle class="cls-1" cx="22.7" cy="2.37" r="0.51"/><circle class="cls-1" cx="18.81" cy="3.1" r="0.51"/><path class="cls-2" d="M41.12,41.11a23.27,23.27,0,0,0,0-32.94l-33,32.94A23.34,23.34,0,0,0,41.12,41.11Z"/><path class="cls-1" d="M25,21.53a.6.6,0,0,1-.61-.6V17a.61.61,0,0,1,1.22,0v4A.6.6,0,0,1,25,21.53Z"/><path class="cls-1" d="M23.15,22.3a.6.6,0,0,1-.43-.18l-2.81-2.8a.61.61,0,0,1,.86-.86l2.81,2.8a.6.6,0,0,1,0,.86A.61.61,0,0,1,23.15,22.3Z"/><path class="cls-1" d="M22.38,24.15h-4a.61.61,0,0,1,0-1.21h4a.61.61,0,1,1,0,1.21Z"/><path class="cls-1" d="M20.34,28.8a.61.61,0,0,1-.43-.18.59.59,0,0,1,0-.85L22.72,25a.61.61,0,0,1,.86.86l-2.81,2.8A.6.6,0,0,1,20.34,28.8Z"/><path class="cls-1" d="M25,34a.61.61,0,0,1-.61-.61V26.16a.61.61,0,1,1,1.22,0v7.22A.61.61,0,0,1,25,34Z"/><path class="cls-1" d="M29.66,28.8a.6.6,0,0,1-.43-.18l-2.81-2.8a.61.61,0,0,1,.86-.86l2.81,2.81a.61.61,0,0,1-.43,1Z"/><path class="cls-1" d="M31.59,24.15h-4a.61.61,0,1,1,0-1.21h4a.61.61,0,0,1,0,1.21Z"/><path class="cls-1" d="M26.85,22.3a.61.61,0,0,1-.43-.18.6.6,0,0,1,0-.86l2.81-2.8a.6.6,0,0,1,.86,0,.62.62,0,0,1,0,.86l-2.81,2.8A.6.6,0,0,1,26.85,22.3Z"/></g><g id="btn_wish_action"><ellipse class="cls-3" cx="75" cy="25" rx="24.5" ry="24.47"/><circle class="cls-4" cx="64.89" cy="4.05" r="0.52"/><circle class="cls-4" cx="61.41" cy="6.11" r="0.52"/><circle class="cls-4" cx="58.34" cy="8.75" r="0.52"/><circle class="cls-4" cx="55.78" cy="11.87" r="0.52"/><circle class="cls-4" cx="53.8" cy="15.4" r="0.52"/><circle class="cls-4" cx="52.46" cy="19.21" r="0.52"/><circle class="cls-4" cx="51.8" cy="23.19" r="0.52"/><circle class="cls-4" cx="51.85" cy="27.23" r="0.52"/><circle class="cls-4" cx="52.6" cy="31.2" r="0.52"/><circle class="cls-4" cx="54.03" cy="34.98" r="0.52"/><circle class="cls-4" cx="56.09" cy="38.46" r="0.52"/><circle class="cls-4" cx="58.73" cy="41.52" r="0.52"/><circle class="cls-4" cx="61.86" cy="44.08" r="0.52"/><circle class="cls-4" cx="65.38" cy="46.06" r="0.52"/><circle class="cls-4" cx="69.2" cy="47.4" r="0.52"/><circle class="cls-4" cx="73.19" cy="48.05" r="0.52"/><circle class="cls-4" cx="77.24" cy="48.01" r="0.52"/><circle class="cls-4" cx="81.21" cy="47.26" r="0.52"/><circle class="cls-4" cx="85" cy="45.83" r="0.52"/><circle class="cls-4" cx="88.47" cy="43.77" r="0.52"/><circle class="cls-4" cx="91.54" cy="41.14" r="0.52"/><circle class="cls-4" cx="94.1" cy="38.01" r="0.52"/><circle class="cls-4" cx="96.08" cy="34.49" r="0.52"/><circle class="cls-4" cx="97.42" cy="30.68" r="0.52"/><circle class="cls-4" cx="98.08" cy="26.69" r="0.52"/><circle class="cls-4" cx="98.03" cy="22.65" r="0.52"/><circle class="cls-4" cx="97.28" cy="18.68" r="0.52"/><circle class="cls-4" cx="95.85" cy="14.9" r="0.52"/><circle class="cls-4" cx="93.79" cy="11.42" r="0.52"/><circle class="cls-4" cx="91.15" cy="8.36" r="0.52"/><circle class="cls-4" cx="88.02" cy="5.8" r="0.52"/><circle class="cls-4" cx="84.5" cy="3.82" r="0.52"/><circle class="cls-4" cx="80.68" cy="2.48" r="0.52"/><circle class="cls-4" cx="76.69" cy="1.83" r="0.52"/><circle class="cls-4" cx="72.65" cy="1.88" r="0.52"/><circle class="cls-4" cx="68.67" cy="2.63" r="0.52"/><path class="cls-4" d="M75,21.46a.62.62,0,0,1-.62-.62V16.79a.62.62,0,0,1,1.24,0v4.05A.62.62,0,0,1,75,21.46Z"/><path class="cls-4" d="M73.11,22.24a.62.62,0,0,1-.44-.18L69.8,19.2a.62.62,0,0,1,.88-.88l2.87,2.86a.63.63,0,0,1,0,.88A.62.62,0,0,1,73.11,22.24Z"/><path class="cls-4" d="M72.32,24.13h-4a.62.62,0,0,1,0-1.24h4a.62.62,0,1,1,0,1.24Z"/><path class="cls-4" d="M70.24,28.88a.62.62,0,0,1-.44-1.05L72.67,25a.62.62,0,1,1,.88.88L70.68,28.7A.62.62,0,0,1,70.24,28.88Z"/><path class="cls-4" d="M75,34.18a.62.62,0,0,1-.62-.62V26.18a.62.62,0,0,1,1.24,0v7.38A.62.62,0,0,1,75,34.18Z"/><path class="cls-4" d="M79.76,28.88a.62.62,0,0,1-.44-.18l-2.87-2.86a.62.62,0,1,1,.88-.88l2.87,2.87a.62.62,0,0,1-.44,1.05Z"/><path class="cls-4" d="M81.73,24.13H77.67a.62.62,0,1,1,0-1.24h4.06a.62.62,0,0,1,0,1.24Z"/><path class="cls-4" d="M76.89,22.24a.62.62,0,0,1-.44-.18.63.63,0,0,1,0-.88l2.87-2.86a.62.62,0,0,1,.88.88l-2.87,2.86A.62.62,0,0,1,76.89,22.24Z"/><path class="cls-2" d="M58.23,41.41A23.8,23.8,0,0,0,91.91,7.76s6.59,15.44-4.65,28.8S58.23,41.41,58.23,41.41Z"/></g></svg>