<svg xmlns="http://www.w3.org/2000/svg" viewBox="0 0 51 51"><defs><style>.cls-1{fill:gray;}</style></defs><title>icon_att_gr</title><g id="icon_att_gr"><path class="cls-1" d="M18.17,30.32c4.62,0,8.37-4.6,8.37-10.28S22.79,9.77,18.17,9.77,9.8,14.37,9.8,20,13.55,30.32,18.17,30.32Z"/><path class="cls-1" d="M46.25,33.47a11.6,11.6,0,0,0-4-2.81,7.37,7.37,0,0,1-6,3.35c-2.42,0-4.06-1.18-5.65-2.82a16.36,16.36,0,0,0-2.83-2.5,16.72,16.72,0,0,0-2-1A9.48,9.48,0,0,1,18.17,32a9.44,9.44,0,0,1-7.69-4.31A15.16,15.16,0,0,0,5.4,31.26a10.94,10.94,0,0,0-2.82,9.21,1,1,0,0,0,1,.76H47.7a.75.75,0,0,0,.75-.59A8.49,8.49,0,0,0,46.25,33.47Z"/><path class="cls-1" d="M36.31,32.73c3.6,0,6.52-3.58,6.52-8s-2.92-8-6.52-8-6.52,3.58-6.52,8S32.71,32.73,36.31,32.73Z"/></g></svg>