<svg xmlns="http://www.w3.org/2000/svg" viewBox="0 0 80 80"><defs><style>.cls-1{fill:#d2d2d2;}</style></defs><title>icon_empty_like</title><g id="icon_empty_like"><path class="cls-1" d="M40,66.07a11.89,11.89,0,0,1-8.45-3.5,2.33,2.33,0,1,1,3.29-3.3,7.47,7.47,0,0,0,10.32,0l25-25a9.2,9.2,0,1,0-13-13L25.35,53.07a2.4,2.4,0,0,1-3.3,0L6.56,37.59A13.86,13.86,0,1,1,26.16,18l8.93,8.93a2.33,2.33,0,0,1-3.29,3.3l-8.93-8.93a9.2,9.2,0,0,0-13,13L23.69,48.14,53.84,18a13.86,13.86,0,1,1,19.6,19.6l-25,25A11.91,11.91,0,0,1,40,66.07Z"/></g></svg>