<svg xmlns="http://www.w3.org/2000/svg" xmlns:xlink="http://www.w3.org/1999/xlink" viewBox="0 0 20 20"><defs><style>.cls-1{fill:none;}.cls-2{fill:#fff;}.cls-3{clip-path:url(#clip-path);}.cls-4{fill:#d20000;}</style><clipPath id="clip-path"><path class="cls-1" d="M-3,10A10,10,0,0,1-13,20,10,10,0,0,1-23,10,10,10,0,0,1-13,0,10,10,0,0,1-3,10Z"/></clipPath></defs><title>icon_searchBt</title><g id="icon_searchBt"><path class="cls-2" d="M18.22,14.84,12.9,11.71A5.76,5.76,0,1,0,9,15.14a5.71,5.71,0,0,0,3-2l5.32,3.13Zm-15.72-4A5.22,5.22,0,1,1,8.89,14.6,5.25,5.25,0,0,1,2.5,10.85Zm10,1.7.1-.18.09-.15L17.47,15l-.28.48L12.4,12.7Z"/></g><g id="icon_country_tw"><g class="cls-3"><rect class="cls-4" x="-28.11" y="-0.07" width="30.21" height="20.14"/></g></g></svg>