<svg xmlns="http://www.w3.org/2000/svg" viewBox="0 0 81 82.11"><defs><style>.cls-1{fill:#60bcaa;}.cls-2{fill:#fff;}</style></defs><title>icon_deal_gw</title><g id="icon_deal_gw"><polygon class="cls-1" points="81 0 81 82.11 0 82.11 81 0"/><path class="cls-2" d="M48.25,47.37h7.94a0,0,0,0,1,0,0V60.3a0,0,0,0,1,0,0H48.25a.77.77,0,0,1-.77-.77V48.15A.77.77,0,0,1,48.25,47.37Z" transform="translate(29.75 -17.56) rotate(26.73)"/><rect class="cls-2" x="51.44" y="44.66" width="8.71" height="2.61" rx="0.44" ry="0.44" transform="translate(26.63 -20.18) rotate(26.73)"/><rect class="cls-2" x="43.44" y="60.55" width="8.71" height="2.61" rx="0.44" ry="0.44" transform="translate(32.93 -14.89) rotate(26.73)"/><path class="cls-2" d="M75.05,65.71h0a2.55,2.55,0,0,1-3.51,1.08L55.28,57.33l1.41-2.8,17.14,7.72A2.55,2.55,0,0,1,75.05,65.71Z"/><rect class="cls-2" x="38.78" y="70.42" width="18.45" height="2.47"/><path class="cls-2" d="M41.43,66.91H54.58a.83.83,0,0,1,.83.83v1.64a0,0,0,0,1,0,0H40.6a0,0,0,0,1,0,0V67.74a.83.83,0,0,1,.83-.83Z"/></g></svg>