<svg xmlns="http://www.w3.org/2000/svg" viewBox="0 0 40 40"><defs><style>.cls-1{fill:#919191;opacity:0;}.cls-2,.cls-3{fill:#ff7150;}.cls-2{opacity:0.3;}</style></defs><title>icon_mkt_love.action</title><g id="icon_mkt_love.action"><rect class="cls-1" y="0.02" width="40" height="39.99"/><polygon class="cls-2" points="17.07 27.8 8.38 19.12 7.74 14.46 10.57 11.05 14.48 12.63 16.79 13.9 20.45 17.63 26.26 11.96 30.8 12.46 32.39 15.54 31.39 18.45 21.56 27.8 17.07 27.8"/><path class="cls-3" d="M20,29.08a4.12,4.12,0,0,1-2.94-1.22.81.81,0,1,1,1.15-1.14,2.6,2.6,0,0,0,3.59,0L30.48,18A3.2,3.2,0,1,0,26,13.51l-11,11a.84.84,0,0,1-1.15,0L8.37,19.18a4.82,4.82,0,0,1,6.82-6.82l3.1,3.11a.81.81,0,0,1-1.14,1.14L14,13.51A3.2,3.2,0,1,0,9.52,18l4.81,4.81L24.81,12.36a4.82,4.82,0,0,1,6.82,6.82l-8.69,8.68A4.11,4.11,0,0,1,20,29.08Z"/></g></svg>