<svg xmlns="http://www.w3.org/2000/svg" viewBox="0 0 68 68"><defs><style>.cls-1{fill:#ff8b8e;}.cls-2{fill:#fff;}</style></defs><title>icon_item_media</title><g id="icon_item_media"><rect class="cls-1" width="68" height="68"/><path class="cls-2" d="M34.14,21.64A13.92,13.92,0,1,0,48.06,35.56,13.92,13.92,0,0,0,34.14,21.64Zm-3.29,3.44a3.18,3.18,0,1,1-2.09,4A3.18,3.18,0,0,1,30.85,25.08ZM23.14,35.43a3.19,3.19,0,1,1,3.15,3.22A3.19,3.19,0,0,1,23.14,35.43ZM34.65,44a3.19,3.19,0,1,1-2-4A3.19,3.19,0,0,1,34.65,44Zm-.51-6.84a1.56,1.56,0,1,1,1.56-1.56A1.55,1.55,0,0,1,34.14,37.12Zm8.79,5a3.19,3.19,0,1,1-.66-4.46A3.19,3.19,0,0,1,42.93,42.12Zm-.61-8.47a3.19,3.19,0,1,1,.76-4.44A3.19,3.19,0,0,1,42.32,33.65Z"/><path class="cls-2" d="M20,29.91A15.66,15.66,0,0,1,34.14,19.38l1.7-3.51a.71.71,0,0,0-.83-1c-2.85.76-9.14,2.84-12.51,7A10.87,10.87,0,0,0,20,29.91Z"/></g></svg>