<svg xmlns="http://www.w3.org/2000/svg" viewBox="0 0 68 68"><defs><style>.cls-1{fill:#ffa7cb;}.cls-2{fill:#fff;}</style></defs><title>icon_item_lady</title><g id="icon_item_lady"><rect class="cls-1" width="68" height="68"/><path class="cls-2" d="M42.25,39.21a.71.71,0,0,0-1.06.07,9.14,9.14,0,0,1-14.38,0,.71.71,0,0,0-1.06-.07L20.5,44.45a.71.71,0,0,0,0,1,18.61,18.61,0,0,0,13.44,5.7h.14a18.61,18.61,0,0,0,13.44-5.7.71.71,0,0,0,0-1Z"/><path class="cls-2" d="M42.84,34c-1.1-.82-.22-7.23-.22-7.23v-.22a8.7,8.7,0,0,0-17.4,0v.22S26.12,33.18,25,34s-1.47,2,.43,2h3.8l0-.09a6.67,6.67,0,0,0,4.7,2.29A6.69,6.69,0,0,0,38.63,36l0,.09H42.4C44.3,36.05,44,34.88,42.84,34Zm-4.46,0a4.76,4.76,0,0,1-4.17,2.67A5.17,5.17,0,0,1,30,34.31a12.9,12.9,0,0,1-2-4.56c1.7-.71,2.41-4.67,2.41-4.67,3.4,3.25,9.91,3.11,9.91,3.11A19.78,19.78,0,0,1,38.38,34Z"/></g></svg>