<svg xmlns="http://www.w3.org/2000/svg" viewBox="0 0 40 40"><defs><style>.cls-1{fill:#c3c3c3;}</style></defs><title>icon_menu</title><g id="icon_menu"><path class="cls-1" d="M20,1.5A18.5,18.5,0,1,1,1.5,20,18.52,18.52,0,0,1,20,1.5M20,0A20,20,0,1,0,40,20,20,20,0,0,0,20,0Z"/><path class="cls-1" d="M29.42,18.39H10.58a1.58,1.58,0,1,0,0,3.16H29.42A1.61,1.61,0,0,0,31,20,1.57,1.57,0,0,0,29.42,18.39Zm-18.84-3.1H29.42A1.57,1.57,0,0,0,31,13.71a1.61,1.61,0,0,0-1.58-1.58H10.58A1.57,1.57,0,0,0,9,13.71,1.7,1.7,0,0,0,10.58,15.29Zm18.84,9.42H10.58A1.57,1.57,0,0,0,9,26.29a1.61,1.61,0,0,0,1.58,1.58H29.42A1.61,1.61,0,0,0,31,26.29,1.53,1.53,0,0,0,29.42,24.71Z"/></g></svg>