<svg xmlns="http://www.w3.org/2000/svg" viewBox="0 0 40 40"><defs><style>.cls-1{fill:#ff7150;}.cls-2{fill:#fff;}</style></defs><title>icon_notice_o</title><g id="icon_notice_o"><circle class="cls-1" cx="20" cy="20" r="20"/><path class="cls-2" d="M27.9,18.55c-2.82-6.94-4.3-9.65-9.46-9.77-1.84-.06-1.35-1.41-2.76-1s-.25,1.29-1.78,2.39c-4.18,3.08-4,6.15-2.52,13.52.61,3.07-2.09,3.13-1.17,6.14.67,2.21,6.33,3.38,12.47,1.48S32.82,25.18,32.2,23C31.28,19.9,29.07,21.44,27.9,18.55ZM22.13,29.36c-5.47,1.72-9.83.31-10-.24-.24-.93,2-3.81,8.17-5.78s9.65-.92,10,.06C30.48,24.14,27.66,27.7,22.13,29.36Z"/><path class="cls-2" d="M14.51,27.09c.92.92,2.76,1.17,4.61.49,2.09-.8,3.38-2.46,3.13-3.93-.49.12-1,.24-1.66.43A17.81,17.81,0,0,0,14.51,27.09Z"/></g></svg>