<svg xmlns="http://www.w3.org/2000/svg" viewBox="0 0 68 68"><defs><style>.cls-1{fill:#eeb8ae;}.cls-2{fill:#fff;}</style></defs><title>icon_item_garden</title><g id="icon_item_garden"><rect class="cls-1" width="68" height="68"/><path class="cls-2" d="M48,35.69c.73-.95,1.56-1.81,2.23-2.81A9.48,9.48,0,0,0,52,28.45a4.3,4.3,0,0,0-.53-2.7c-4.54-5.38-8.93,0-8.93,0V24.33a1.41,1.41,0,0,0-1.42-1.41H24.75a1.13,1.13,0,0,0-1.05.66,1.09,1.09,0,0,0,.15,1.13l1.46,1.85v8.29l-3.59-6.21a2,2,0,0,0-2.59-.8,1.94,1.94,0,0,0-.79,2.69l7,12.08v3a1.41,1.41,0,0,0,1.42,1.42H42a1.41,1.41,0,0,0,1.41-1.42V43.53A4.06,4.06,0,0,0,46,45a4.77,4.77,0,0,0,4.5-1.69,1.05,1.05,0,0,0-.1-1.44,1,1,0,0,0-1.39,0c-1.4,1.29-4,1-4-1.27a2.93,2.93,0,0,1,.62-1.77C46.41,37.76,47.21,36.72,48,35.69Zm-5.42,3V30.5l2.89-3.6a2.31,2.31,0,0,1,3.13-.44h0a2.3,2.3,0,0,1,.54,3.24Z"/><path class="cls-2" d="M20.44,25.18l.21-3.31a.89.89,0,0,0-1.33-.82L13,24.72a.88.88,0,0,0,0,1.56l3,1.47a.69.69,0,0,0,.67,0l3.43-2A.73.73,0,0,0,20.44,25.18Z"/></g></svg>