<svg xmlns="http://www.w3.org/2000/svg" viewBox="0 0 68 68"><defs><style>.cls-1{fill:#67c5ed;}.cls-2{fill:#fff;}</style></defs><title>icon_item_man</title><g id="icon_item_man"><rect class="cls-1" width="68" height="68"/><path class="cls-2" d="M42.25,39.21a.71.71,0,0,0-1.06.07,9.14,9.14,0,0,1-14.38,0,.71.71,0,0,0-1.06-.07L20.5,44.45a.71.71,0,0,0,0,1,18.61,18.61,0,0,0,13.44,5.7h.14a18.61,18.61,0,0,0,13.44-5.7.71.71,0,0,0,0-1Z"/><path class="cls-2" d="M33.93,18a8.64,8.64,0,0,0-8.64,8.64c0,4.78,3.87,11.62,8.64,11.62s8.64-6.84,8.64-11.62A8.64,8.64,0,0,0,33.93,18Zm.28,18.7c-4.81,0-6.16-6.94-6.16-6.94,1.7-.71,2.41-4.67,2.41-4.67,3.4,3.25,9.91,3.11,9.91,3.11C39.52,32.16,38.11,36.69,34.21,36.69Z"/></g></svg>