<svg xmlns="http://www.w3.org/2000/svg" viewBox="0 0 68 68"><defs><style>.cls-1{fill:#49b8d2;}.cls-2{fill:#fff;}</style></defs><title>icon_item_traffic</title><g id="icon_item_traffic"><rect class="cls-1" width="68" height="68"/><path class="cls-2" d="M47.64,30.67H46.48a11.7,11.7,0,0,0-23.27.77,7.85,7.85,0,0,0-4.44,7.07v1.37h-.66a1.25,1.25,0,0,0-1.25,1.25V42a1.25,1.25,0,0,0,1.25,1.25h2.65a5,5,0,0,0,10,0H36.2a5,5,0,0,0,10-.07,3.39,3.39,0,0,0,0-.45,5.8,5.8,0,0,0,3.42-5.3V32.69A2,2,0,0,0,47.64,30.67ZM25.78,45.83a2.62,2.62,0,1,1,2.62-2.62A2.63,2.63,0,0,1,25.78,45.83Zm7.46-15.16h-6.7a8.53,8.53,0,0,1,6.7-6.77Zm3.22,0V23.89a8.51,8.51,0,0,1,6.77,6.78Zm4.76,15.16a2.62,2.62,0,1,1,2.63-2.62A2.63,2.63,0,0,1,41.22,45.83Z"/></g></svg>