<svg xmlns="http://www.w3.org/2000/svg" viewBox="0 0 68 68"><defs><style>.cls-1{fill:#e29cd2;}.cls-2{fill:#fff;}</style></defs><title>icon_item_crafts</title><g id="icon_item_crafts"><rect class="cls-1" width="68" height="68"/><path class="cls-2" d="M18.7,46.13a.64.64,0,0,0,.9.9l3.34-3.33c-.27-.34-.53-.68-.77-1ZM48.54,16.84A3.89,3.89,0,0,0,42.08,20a1.25,1.25,0,0,1-.35,1l-.47.47a.63.63,0,0,0,0,.9l.15.15,1.81,1.8.15.15a.63.63,0,0,0,.9,0l.46-.46a1.24,1.24,0,0,1,1-.36,3.89,3.89,0,0,0,2.83-6.81ZM33.79,22.3A12.62,12.62,0,1,0,46.41,34.92,12.63,12.63,0,0,0,33.79,22.3Zm4.75,3.14a16.44,16.44,0,0,1,2,7.78,16.24,16.24,0,0,1-.16,2.32A17.86,17.86,0,0,0,38,34.31c0-.37,0-.73,0-1.09a14,14,0,0,0-3.17-8.86A10.4,10.4,0,0,1,38.54,25.44Zm-5.88-1.07a12.39,12.39,0,0,1,3.72,8.85c0,.17,0,.33,0,.5a18.36,18.36,0,0,0-2.21-.57A10.23,10.23,0,0,0,30,25,10.63,10.63,0,0,1,32.66,24.37ZM32.25,31a8.09,8.09,0,0,1,.3,2,16.61,16.61,0,0,0-1.74-.09h-.29A8.41,8.41,0,0,1,32.25,31Zm-3.67,2a18.67,18.67,0,0,0-3,.63,12.73,12.73,0,0,1,4.6-6.26,8.62,8.62,0,0,1,1.44,2A10,10,0,0,0,28.58,33Zm-.27-7.15.67.43a14.46,14.46,0,0,0-5.24,8l-.56.25A10.64,10.64,0,0,1,28.31,25.83Zm5.48,19.7A10.52,10.52,0,0,1,27,43.1,8.7,8.7,0,0,1,37.15,45,10.43,10.43,0,0,1,33.79,45.53Zm4.92-1.21a10.3,10.3,0,0,0-12.89-2.4,10.3,10.3,0,0,1-1.29-1.82,12.55,12.55,0,0,1,16,3A10.49,10.49,0,0,1,38.71,44.32Zm3-2.36a14.14,14.14,0,0,0-17.87-3.32,10.88,10.88,0,0,1-.59-2.36A16.49,16.49,0,0,1,43.12,40,10.33,10.33,0,0,1,41.72,42Zm2.1-3.59a17.48,17.48,0,0,0-2-1.82,17.64,17.64,0,0,0,.31-3.33,17.93,17.93,0,0,0-1-6,10.55,10.55,0,0,1,3.33,7.7A10.37,10.37,0,0,1,43.82,38.37Z"/></g></svg>