<svg xmlns="http://www.w3.org/2000/svg" viewBox="0 0 80 80"><defs><style>.cls-1{fill:#fff;}</style></defs><title>icon_itrm_free</title><g id="icon_itrm_free"><path class="cls-1" d="M64.08,50a12.35,12.35,0,0,1-2.9-.36,1,1,0,0,1-.78-.89,1,1,0,0,1,1.23-1,8.36,8.36,0,0,0,8.05-1.89,11.13,11.13,0,0,0,3-4.69A13.63,13.63,0,0,0,69.45,29.3c-3.84-4.33-9.33-2.12-9.38-2.1a1,1,0,1,1-.76-1.84,11.6,11.6,0,0,1,4-.73A9.72,9.72,0,0,1,70.93,28a15.72,15.72,0,0,1,3.72,13.69A13,13,0,0,1,71,47.32,10.13,10.13,0,0,1,64.08,50Z"/><path class="cls-1" d="M30.91,40a1.72,1.72,0,0,0-1,.27l-.54.3,1.07,1.91.53-.29c.77-.43,1-1,.62-1.62A1,1,0,0,0,30.91,40Z"/><path class="cls-1" d="M50,11.9,5,37.54,22.6,68.1,67.92,42.46l2.55-10.11a12.9,12.9,0,0,0-1.72-2.43,6.8,6.8,0,0,0-3.17-2.08A5.68,5.68,0,1,1,65.93,24a10.49,10.49,0,0,1,5.69,3.4l.08.08,2.27-9ZM26.34,52.17l-3.2,1.77L17.61,44l5.87-3.25,1.41,2.55-2.67,1.48.78,1.4,2.46-1.36,1.4,2.52-2.47,1.36Zm9.13-5.06-3.8-2.52,2,3.54-3.23,1.79-5.54-10,4.18-2.31a5.07,5.07,0,0,1,3.22-.76,3.15,3.15,0,0,1,2.26,1.75,3.46,3.46,0,0,1,.48,2,3.15,3.15,0,0,1-.64,1.73L39,45.14Zm4.27-2.36-5.53-10,6.1-3.38L41.7,33.9l-2.9,1.61.69,1.24,2.44-1.35,1.38,2.49-2.44,1.35.67,1.22,3-1.68L46,41.29Zm7.66-4.24-5.53-10L48,27.14l1.39,2.52-2.9,1.6.69,1.25,2.44-1.35L51,33.65,48.53,35l.68,1.22,3-1.69,1.4,2.52Z"/></g></svg>