<svg xmlns="http://www.w3.org/2000/svg" viewBox="0 0 40 40"><defs><style>.cls-1{fill:none;}.cls-2{fill:#ff7150;}</style></defs><title>icon_uploadV</title><g id="icon_uploadV"><rect class="cls-1" width="40" height="40"/><path class="cls-2" d="M33.2,24.56a.71.71,0,0,0-.71.71V28a2.84,2.84,0,0,1-2.83,2.84H10.34A2.84,2.84,0,0,1,7.51,28v-2.7a.71.71,0,0,0-1.42,0V28a4.25,4.25,0,0,0,4.25,4.25H29.66A4.25,4.25,0,0,0,33.91,28v-2.7A.71.71,0,0,0,33.2,24.56Z"/><path class="cls-2" d="M28.9,27.35H11.1a.71.71,0,1,0,0,1.42H28.9a.71.71,0,0,0,0-1.42Z"/><path class="cls-2" d="M27.11,13.53l-5.93-5.3a1.77,1.77,0,0,0-2.36,0l-5.93,5.3a.7.7,0,1,0,.94,1.05l5.46-4.87V23.43a.71.71,0,0,0,1.42,0V9.71l5.46,4.87a.69.69,0,0,0,.47.18.74.74,0,0,0,.53-.23A.71.71,0,0,0,27.11,13.53Z"/></g></svg>