<svg xmlns="http://www.w3.org/2000/svg" viewBox="0 0 68 68"><defs><style>.cls-1{fill:#ff686a;}.cls-2{fill:#fff;}</style></defs><title>icon_item_gift</title><g id="icon_item_gift"><rect class="cls-1" width="68" height="68"/><path class="cls-2" d="M35.34,24.72a14.74,14.74,0,0,0,2.24.16c2,0,4.74-.38,6.1-2.26a3.17,3.17,0,0,0,0-4,4,4,0,0,0-4.52-1.16c-2,.95-4.18,5-4.58,5.85a1,1,0,0,0,0,.91A1,1,0,0,0,35.34,24.72ZM40,19.26a1.23,1.23,0,0,1,.55-.11,2.16,2.16,0,0,1,1.57.71,1.19,1.19,0,0,1-.1,1.58c-.9,1.24-3.23,1.47-4.94,1.42C38,21.31,39.22,19.63,40,19.26ZM30,24.88a14.74,14.74,0,0,0,2.24-.16,1,1,0,0,0,.74-.53,1,1,0,0,0,0-.91c-.41-.81-2.53-4.9-4.59-5.85a4,4,0,0,0-4.51,1.16,3.14,3.14,0,0,0,0,4C25.26,24.5,28,24.88,30,24.88Zm-4.56-5A2.14,2.14,0,0,1,27,19.15a1.23,1.23,0,0,1,.55.11c.81.37,2,2,2.91,3.6-1.7.05-4-.18-4.94-1.42A1.19,1.19,0,0,1,25.43,19.86Zm-6.16,7.43v5.49A1.22,1.22,0,0,0,20.49,34h12.7V26.07H20.49A1.21,1.21,0,0,0,19.27,27.29Zm2,9.21V48.36a1.22,1.22,0,0,0,1.22,1.22H33.19V35.27H22.47A1.23,1.23,0,0,0,21.25,36.5ZM47.09,26.07H34.39V34h12.7a1.22,1.22,0,0,0,1.22-1.22V27.29A1.22,1.22,0,0,0,47.09,26.07Zm-2,9.2H34.39V49.58H45.1a1.21,1.21,0,0,0,1.22-1.22V36.5A1.22,1.22,0,0,0,45.1,35.27Z"/></g></svg>