<svg xmlns="http://www.w3.org/2000/svg" viewBox="0 0 68 68"><defs><style>.cls-1{fill:#7fe4de;}.cls-2{fill:#fff;}</style></defs><title>icon_item_baby</title><g id="icon_item_baby"><rect class="cls-1" width="68" height="68"/><path class="cls-2" d="M33.42,23.39,19.8,37a1.4,1.4,0,0,0,0,2l10,10a1.43,1.43,0,0,0,2,0L45.44,35.41a1.4,1.4,0,0,0,0-2l-10-10A1.42,1.42,0,0,0,33.42,23.39Zm-.3,20.54-3-3a1,1,0,1,1,1.4-1.4l3,3a1,1,0,1,1-1.4,1.4ZM36,41l-3-3a1,1,0,1,1,1.4-1.4l3,3A1,1,0,1,1,36,41Zm2.9-2.9-3-3a1,1,0,1,1,1.4-1.4l3,3a1,1,0,0,1-1.4,1.4Z"/><path class="cls-2" d="M43.81,25.09a9.91,9.91,0,0,0-6.42-2.9.6.6,0,0,0-.46,1L45.68,32a.61.61,0,0,0,1-.47A10,10,0,0,0,43.81,25.09Z"/><circle class="cls-2" cx="46.01" cy="22.89" r="2.97"/><path class="cls-2" d="M45.09,26a.48.48,0,0,1,.39-.13l-1.19-1.2-1.2-1.2a.48.48,0,0,1-.14.4.48.48,0,0,1-.61.05l1.35,1.35L45,26.57A.49.49,0,0,1,45.09,26Z"/></g></svg>