<svg xmlns="http://www.w3.org/2000/svg" viewBox="0 0 40 40"><defs><style>.cls-1{fill:#60bcaa;}</style></defs><title>icon_deal</title><g id="icon_deal"><path class="cls-1" d="M11.24,9.49h7.91a0,0,0,0,1,0,0V22.35a0,0,0,0,1,0,0H11.24a.77.77,0,0,1-.77-.77V10.26a.77.77,0,0,1,.77-.77Z" transform="translate(8.74 -4.96) rotate(26.73)"/><rect class="cls-1" x="14.41" y="6.78" width="8.68" height="2.6" rx="0.44" ry="0.44" transform="translate(5.64 -7.57) rotate(26.73)"/><rect class="cls-1" x="6.45" y="22.6" width="8.68" height="2.6" rx="0.44" ry="0.44" transform="translate(11.9 -2.3) rotate(26.73)"/><path class="cls-1" d="M37.92,27.74h0a2.53,2.53,0,0,1-3.49,1.07L18.24,19.39l1.4-2.78L36.7,24.3A2.53,2.53,0,0,1,37.92,27.74Z"/><rect class="cls-1" x="1.81" y="32.42" width="18.36" height="2.46"/><path class="cls-1" d="M4.45,28.94H17.54a.83.83,0,0,1,.83.83v1.63a0,0,0,0,1,0,0H3.62a0,0,0,0,1,0,0V29.76A.83.83,0,0,1,4.45,28.94Z"/></g></svg>