<svg xmlns="http://www.w3.org/2000/svg" viewBox="0 0 68 68"><defs><style>.cls-1{fill:#bfb6b0;}.cls-2{fill:#fff;}</style></defs><title>icon_item_makeup</title><g id="icon_item_makeup"><rect class="cls-1" width="68" height="68"/><path class="cls-2" d="M49.29,22.09l-.46-.46a5.81,5.81,0,0,0-8.2,0l-2.9,3a1.42,1.42,0,0,0,0,2l3.06,3.06a1.41,1.41,0,0,0,2,0l6.47-6.58A.71.71,0,0,0,49.29,22.09ZM41.7,28,41,27.29l4.11-4.11.71.71Z"/><path class="cls-2" d="M28,32a7.14,7.14,0,0,0-5.63,2.06l-2.11,2.12a6.11,6.11,0,0,0,0,8.63l1.44,1.44a6.11,6.11,0,0,0,8.63,0l2.11-2.12a7.07,7.07,0,0,0,2.09-4.88l6.06-6.06a1.42,1.42,0,0,0,0-2l-4.88-4.89a1.43,1.43,0,0,0-2,0Zm3.68,7.8a8.3,8.3,0,0,1-6,6.84.64.64,0,0,1-.8-.45.65.65,0,0,1,.45-.79,7,7,0,0,0,5.05-5.79c0-.13,0-.34,0-.55a.63.63,0,0,1,.63-.61h0a.64.64,0,0,1,.64.67C31.75,39.4,31.73,39.66,31.71,39.83Zm7.47-7.61L35.4,36l-4.21-4.21L35,28Z"/></g></svg>