<svg xmlns="http://www.w3.org/2000/svg" viewBox="0 0 80 80"><defs><style>.cls-1{fill:#d2d2d2;fill-rule:evenodd;}</style></defs><title>icon_empty_swap</title><g id="icon_empty_swap"><path class="cls-1" d="M66.65,13.08H63.56a1.79,1.79,0,0,0-1.78,1.79v7.69A1.79,1.79,0,0,1,60,24.35H20a1.79,1.79,0,0,1-1.79-1.79V14.87a1.79,1.79,0,0,0-1.78-1.79H13.35a1.79,1.79,0,0,0-1.79,1.79V75.71a1.79,1.79,0,0,0,1.79,1.79h53.3a1.79,1.79,0,0,0,1.79-1.79V14.87A1.79,1.79,0,0,0,66.65,13.08ZM54.94,67H25.06a2.18,2.18,0,0,1,0-4.36H54.94a2.18,2.18,0,0,1,0,4.36Zm0-13.64H25.06a2.18,2.18,0,1,1,0-4.35H54.94a2.18,2.18,0,1,1,0,4.35Zm0-13.64H25.06a2.18,2.18,0,1,1,0-4.35H54.94a2.18,2.18,0,1,1,0,4.35Z"/><path class="cls-1" d="M56.36,9.49a2.8,2.8,0,0,1-2.53-1.61c-1.47-3.09-7-5.38-13.61-5.38S28.07,4.79,26.6,7.88a2.8,2.8,0,0,1-2.52,1.61h-.44a2.79,2.79,0,0,0-2.79,2.8v6.86a2.79,2.79,0,0,0,2.79,2.79H56.36a2.79,2.79,0,0,0,2.79-2.79V12.29a2.79,2.79,0,0,0-2.79-2.8Z"/></g></svg>