<svg xmlns="http://www.w3.org/2000/svg" viewBox="0 0 58 58"><defs><style>.cls-1{fill:#d93a4c;}.cls-2{fill:#fff;}</style></defs><title>icon_swap_r</title><g id="icon_swap_r"><polygon class="cls-1" points="58 0 58 58 0.78 58 58 0"/><path class="cls-2" d="M49.59,46.76l-1.83-8.4a.29.29,0,0,0-.48-.16L33.36,50.63a.29.29,0,0,0,.26.5L48.93,47.8A.88.88,0,0,0,49.59,46.76Z"/><path class="cls-2" d="M30.91,41.2l1.83,8.4a.29.29,0,0,0,.48.16L47.14,37.32a.29.29,0,0,0-.25-.5L31.58,40.16A.88.88,0,0,0,30.91,41.2Z"/><path class="cls-2" d="M36.51,34.43l-.57,1-1.75,3.21.84-.19,1.63-3.17.3-.55A2.05,2.05,0,0,1,36.51,34.43Z"/><path class="cls-2" d="M40.63,34.45l-1-.71a1.57,1.57,0,0,1-.27.49l.51.38,2.79,2.21.85-.19Z"/><circle class="cls-2" cx="37.88" cy="33.09" r="1.52"/></g></svg>