<svg xmlns="http://www.w3.org/2000/svg" viewBox="0 0 68 68"><defs><style>.cls-1{fill:#b8c1e9;}.cls-2{fill:#fff;}</style></defs><title>icon_item_game</title><g id="icon_item_game"><rect class="cls-1" width="68" height="68"/><path class="cls-2" d="M47.66,32a13.67,13.67,0,0,0-27.32,0h0v14a.71.71,0,0,0,1.27.44l2.12-2.76a1.42,1.42,0,0,1,2.24,0l2.21,2.86a1.56,1.56,0,0,0,2.46,0l2.25-2.87a1.42,1.42,0,0,1,2.24,0l2.22,2.87a1.56,1.56,0,0,0,2.46,0L42,43.6a1.42,1.42,0,0,1,2.24,0l2.12,2.76a.71.71,0,0,0,1.27-.44V32Zm-15,0a2.5,2.5,0,0,0,1.06-.24.29.29,0,0,1,.32.46,4,4,0,1,1,0-5.59.28.28,0,0,1-.32.45,2.54,2.54,0,0,0-1.29-.22A2.58,2.58,0,0,0,32.65,32ZM42.7,32a2.58,2.58,0,0,0,1.07-.24.28.28,0,0,1,.31.46,4,4,0,1,1,0-5.59.28.28,0,0,1-.32.45,2.54,2.54,0,0,0-1.29-.22A2.58,2.58,0,0,0,42.7,32Z"/></g></svg>