<svg xmlns="http://www.w3.org/2000/svg" viewBox="0 0 68 68"><defs><style>.cls-1{fill:#94d5b8;}.cls-2{fill:#fff;}</style></defs><title>icon_item_toy</title><g id="icon_item_toy"><rect class="cls-1" width="68" height="68"/><path class="cls-2" d="M34,51.29a23.85,23.85,0,0,1-18.43-8.67,1.56,1.56,0,0,1,2.4-2,20.81,20.81,0,0,0,32.06,0,1.56,1.56,0,0,1,2.4,2A23.85,23.85,0,0,1,34,51.29Z"/><path class="cls-2" d="M16.31,35.07a1.21,1.21,0,0,1,1.11-.8,3.59,3.59,0,0,0,2.74-1.33c1.23-1.56,2.84-3.31,3.92-3.12s1,2.08,0,3.64-2,4-5.33,3.49C16.51,36.6,16.08,35.75,16.31,35.07Z"/><path class="cls-2" d="M46.14,20a2.6,2.6,0,0,0-.1,2.65C46.84,24,50.2,28,50.67,29s.09,3.32-1.42,3.59c-1.68.3-2.78-.15-4.53-1.85s-2.8.86-3.54,2.88-1.09,4,.19,5.48c.83,1,2,2.44,2.69,3.33a.88.88,0,0,1-.24,1.29l-3.07,1.83a.87.87,0,0,1-1.2-.31l-2.86-5.19a9.18,9.18,0,0,1-5.29,0l-3.46,4.59a.86.86,0,0,1-1,.28L24.25,43.8a.87.87,0,0,1-.31-1.38l2.69-3.06s-.66-3.59-.85-4.72-.34-4,2.87-4.92a.81.81,0,0,1,1,.78V33H34V30.25a.8.8,0,0,1,.8-.81h1s1.08-6.47,6-8.07a3.77,3.77,0,0,0,1.75-.76A8.57,8.57,0,0,1,46,18.69a.41.41,0,0,1,.52.56Z"/></g></svg>