<svg xmlns="http://www.w3.org/2000/svg" viewBox="0 0 68 68"><defs><style>.cls-1{fill:#fcd79c;}.cls-2{fill:#fff;}</style></defs><title>icon_item_electric</title><g id="icon_item_electric"><rect class="cls-1" width="68" height="68"/><path class="cls-2" d="M22.17,20.83v7.59a38.35,38.35,0,0,1,23.66,0V20.83a1.42,1.42,0,0,0-1.42-1.42H23.59A1.42,1.42,0,0,0,22.17,20.83ZM30.35,24h-6V21.89h6Zm11,.53a1.68,1.68,0,1,1,1.68-1.68A1.69,1.69,0,0,1,41.37,24.54Z"/><path class="cls-2" d="M22.17,29.91V47.17a1.42,1.42,0,0,0,1.42,1.42H44.41a1.42,1.42,0,0,0,1.42-1.42V29.94a36.95,36.95,0,0,0-23.66,0Zm18.52,9A6.66,6.66,0,1,1,34,32.23,6.66,6.66,0,0,1,40.69,38.89Z"/><ellipse class="cls-2" cx="34.04" cy="38.89" rx="4.89" ry="4.87"/></g></svg>