<svg xmlns="http://www.w3.org/2000/svg" viewBox="0 0 68 68"><defs><style>.cls-1{fill:#f6a37c;}.cls-2{fill:#fff;}</style></defs><title>icon_item_book</title><g id="icon_item_book"><rect class="cls-1" width="68" height="68"/><path class="cls-2" d="M20.54,25.37V44.2a.72.72,0,0,0,.67.71c1.84.1,7.09.52,10.58,2.13a.71.71,0,0,0,1-.64V28.49a.7.7,0,0,0-.32-.59,21.85,21.85,0,0,0-11.21-3.24A.71.71,0,0,0,20.54,25.37Z"/><path class="cls-2" d="M21,23.09s-.15-2.26,1.41-2.19,9.49,3.4,9.71,4.1-.36,1.14-1.21.64A39.6,39.6,0,0,0,21,23.09Z"/><path class="cls-2" d="M47.46,25.37V44.2a.72.72,0,0,1-.67.71C45,45,39.7,45.43,36.21,47a.71.71,0,0,1-1-.64V28.49a.7.7,0,0,1,.32-.59,21.85,21.85,0,0,1,11.21-3.24A.71.71,0,0,1,47.46,25.37Z"/><path class="cls-2" d="M47,23.09s.15-2.26-1.41-2.19-9.49,3.4-9.71,4.1.36,1.14,1.21.64A39.6,39.6,0,0,1,47,23.09Z"/></g></svg>