<svg xmlns="http://www.w3.org/2000/svg" viewBox="0 0 40 40"><defs><style>.cls-1{fill:gray;opacity:0;}.cls-2{fill:#ff7150;}</style></defs><title>icon_mkt_swap</title><g id="icon_mkt_exc"><rect class="cls-1" width="40" height="40"/><path class="cls-2" d="M11.23,23.69l-.45-.77a2,2,0,0,0-2.62-.76L6.48,23a2,2,0,0,0-.82,2.68l4.29,8a2,2,0,0,0,2.64.82L14,33.8a2,2,0,0,0,.86-2.63l-.17-.33,1.7-1.63,8.3.06A3.69,3.69,0,0,0,27,28.54l7.22-5.38a1,1,0,0,0,.21-1.43h0A1,1,0,0,0,33,21.49L26.4,24.77l-5.62-1.85.22-2h6a1.1,1.1,0,0,0,1.08-1.3h0a1.09,1.09,0,0,0-.92-.9,38.11,38.11,0,0,0-5.8-.39,10.56,10.56,0,0,0-8.14,3.4Z"/><polygon class="cls-2" points="11.01 19.52 14.56 17.89 14.56 8.57 19.45 8.57 19.45 14.05 22.85 12.12 26.03 14.34 26.03 8.57 30.69 8.57 30.69 17.82 34.58 19.52 34.58 5.25 11.01 5.25 11.01 19.52"/></g></svg>