<svg xmlns="http://www.w3.org/2000/svg" viewBox="0 0 68 68"><defs><style>.cls-1{fill:#b4cead;}.cls-2{fill:#fff;}</style></defs><title>icon_item_sport</title><g id="icon_item_sport"><rect class="cls-1" width="68" height="68"/><path class="cls-2" d="M47.38,20.34c-1.55-1.63-4-2.18-6.8-1.78l8.3,8.3C49.31,24.2,48.86,21.89,47.38,20.34Z"/><path class="cls-2" d="M27.15,25.85a28.27,28.27,0,0,0-7.37,10.87L30,47a28.7,28.7,0,0,0,10.83-6.7,28.36,28.36,0,0,0,7.37-10.86L38,19.16A28.56,28.56,0,0,0,27.15,25.85Zm12.54,1.36a.85.85,0,0,1,0,1.2l-.94.94,2.13,2.13a1.16,1.16,0,0,1,0,1.65,1.18,1.18,0,0,1-1.65,0L37.1,31l-1.69,1.69,2.12,2.13a1.17,1.17,0,0,1,0,1.66h0a1.18,1.18,0,0,1-1.65,0l-2.13-2.13-1.9,1.9L34,38.38A1.17,1.17,0,0,1,32.32,40l-2.13-2.13-.63.63a.85.85,0,0,1-1.2,0,.86.86,0,0,1,0-1.21L29,36.7l-1.94-1.93a1.17,1.17,0,0,1,1.66-1.65l1.93,1.93,1.91-1.9-1.94-1.94a1.17,1.17,0,1,1,1.66-1.65l1.93,1.93,1.7-1.69L34,27.86a1.18,1.18,0,0,1,0-1.65h0a1.16,1.16,0,0,1,1.65,0l1.94,1.94.94-.94A.85.85,0,0,1,39.69,27.21Z"/><path class="cls-2" d="M20.62,45.78c1.55,1.62,4,2.18,6.79,1.78l-8.29-8.29C18.69,41.92,19.15,44.23,20.62,45.78Z"/></g></svg>