<svg xmlns="http://www.w3.org/2000/svg" viewBox="0 0 68 68"><defs><style>.cls-1{fill:#f2cc7e;}.cls-2{fill:#fff;}</style></defs><title>icon_item_stationery</title><g id="icon_item_stationery"><rect class="cls-1" width="68" height="68"/><path class="cls-2" d="M35.63,21.94V46.06a1.27,1.27,0,0,0,1.27,1.27h7.46a1.27,1.27,0,0,0,1.27-1.27V21.94a1.27,1.27,0,0,0-1.27-1.27H36.9A1.27,1.27,0,0,0,35.63,21.94Zm8.09,22H39.18V42.25h4.54Zm0-4.44H39.18V37.8h4.54Zm0-4.45H37.91V33.36h5.81Zm0-3.8H39.18V29.55h4.54Zm0-4.45H39.18V25.11h4.54Z"/><path class="cls-2" d="M22.54,39.15l4.31,7.67a.6.6,0,0,0,1,0l4.31-7.67a1.22,1.22,0,0,0,.16-.62V22.35a1.27,1.27,0,0,0-1.27-1.27H23.64a1.27,1.27,0,0,0-1.27,1.27V38.53A1.23,1.23,0,0,0,22.54,39.15Zm4.83,2.9-2.19-3.79h4.38ZM24.46,23.21h5.82v1.67H24.46Z"/></g></svg>