<svg xmlns="http://www.w3.org/2000/svg" viewBox="0 0 40 40"><defs><style>.cls-1{fill:#05a;}</style></defs><title>icon_cry_b</title><g id="icon_cry_b"><path class="cls-1" d="M20,2.12A17.88,17.88,0,1,0,37.88,20,17.9,17.9,0,0,0,20,2.12Zm8.63,10a3,3,0,1,1-3,3A3,3,0,0,1,28.63,12.09Zm-16,0a3,3,0,1,1-3,3A3,3,0,0,1,12.59,12.09ZM31.86,28.8a92.45,92.45,0,0,0-11.92-1.32c-4.12,0-9,1.27-11.69,1.75-.3.05-.49-.71-.31-.95,1-1.27,5.9-4.28,12-4.28S31.13,26.61,32,27.85C32.21,28.09,32.16,28.85,31.86,28.8Z"/></g></svg>