<svg xmlns="http://www.w3.org/2000/svg" viewBox="0 0 50 50"><defs><style>.cls-1,.cls-2{fill:#fff;}.cls-1{opacity:0;}</style></defs><title>icon_wish_w</title><g id="icon_wish_w"><rect class="cls-1" width="50" height="50"/><path class="cls-2" d="M25,17.52a1.25,1.25,0,0,1-1.25-1.25V8.12a1.25,1.25,0,0,1,2.5,0v8.15A1.25,1.25,0,0,1,25,17.52Z"/><path class="cls-2" d="M21.2,19.1a1.29,1.29,0,0,1-.89-.37L14.55,13a1.24,1.24,0,0,1,1.76-1.76L22.08,17a1.26,1.26,0,0,1-.88,2.14Z"/><path class="cls-2" d="M19.62,22.9H11.47a1.25,1.25,0,1,1,0-2.5h8.15a1.25,1.25,0,0,1,0,2.5Z"/><path class="cls-2" d="M15.43,32.47a1.25,1.25,0,0,1-.88-2.13l5.76-5.77a1.25,1.25,0,1,1,1.77,1.77l-5.77,5.77A1.24,1.24,0,0,1,15.43,32.47Z"/><path class="cls-2" d="M25,43.13a1.25,1.25,0,0,1-1.25-1.25V27a1.25,1.25,0,0,1,2.5,0V41.88A1.25,1.25,0,0,1,25,43.13Z"/><path class="cls-2" d="M34.57,32.47a1.24,1.24,0,0,1-.88-.36l-5.77-5.77a1.25,1.25,0,1,1,1.77-1.77l5.76,5.77a1.25,1.25,0,0,1-.88,2.13Z"/><path class="cls-2" d="M38.53,22.9H30.38a1.25,1.25,0,0,1,0-2.5h8.15a1.25,1.25,0,0,1,0,2.5Z"/><path class="cls-2" d="M28.8,19.1A1.26,1.26,0,0,1,27.92,17l5.77-5.76A1.24,1.24,0,0,1,35.45,13l-5.76,5.77A1.29,1.29,0,0,1,28.8,19.1Z"/></g></svg>