<svg xmlns="http://www.w3.org/2000/svg" viewBox="0 0 68 68"><defs><style>.cls-1{fill:#6cbdaf;}.cls-2{fill:#fff;}</style></defs><title>icon_item_musical</title><g id="icon_item_musical"><rect class="cls-1" width="68" height="68"/><path class="cls-2" d="M32.14,31.37a48,48,0,0,1-7-.57l3,12.12Zm.47-10.11a1.77,1.77,0,1,0,1.67-2.35,1.78,1.78,0,0,0-1.2.47c-2.89-.79-9.85-2.57-11.76-3-2.41-.56-2.41,2.27-.85,2.55C21.77,19.15,29.88,20.87,32.61,21.26Zm9.14,9.41v0l1.11,7.44a.8.8,0,0,1-.68.91.79.79,0,0,1-.91-.67l-.53-3.59L37.89,45.54a.8.8,0,0,1-.76.6h0a.8.8,0,0,1-.77-.58L33,34,28.81,46a.81.81,0,0,1-.76.54h0a.8.8,0,0,1-.74-.61L24.45,34.58c-.39,2.26-.79,4.51-.88,4.77A.8.8,0,0,1,22,38.86c.12-.46,1-5.36,1.47-8.35v0a11.33,11.33,0,0,1-3.13-1.11c.19,5.05,1,16.22,3.92,19.15.74.75,4.76,2,8.78,2s8-1.23,8.78-2c2.93-2.93,3.73-14.1,3.92-19.15a11.85,11.85,0,0,1-3.39,1.17Zm4.5-10.91c-.88.38-9.41,3.46-11.52,4.25a1.77,1.77,0,1,0,.34,1.89c2.74-.75,11.23-3.09,12.18-3.45C48.38,22,47.25,19.34,46.25,19.76ZM40.1,30.94a53.2,53.2,0,0,1-6.24.43l3.22,11Zm2.35-5.61L36,27.12a3.19,3.19,0,0,1-5.74-1.9,2.84,2.84,0,0,1,.08-.72c-5.72.27-10,1.38-10,2.7C20.33,28.73,26,30,33.08,30s12.75-1.23,12.75-2.76C45.83,26.48,44.55,25.82,42.45,25.33Z"/></g></svg>