<svg xmlns="http://www.w3.org/2000/svg" viewBox="0 0 68 68"><defs><style>.cls-1{fill:#ffa6a8;}.cls-2{fill:#fff;}</style></defs><title>icon_item_art</title><g id="icon_item_art"><rect class="cls-1" width="68" height="68"/><path class="cls-2" d="M22.69,33a1.07,1.07,0,0,0,.33.11C23,33.64,23,34.28,23,35a8.87,8.87,0,0,0,.18,1.75c.14.23.29.43.4.45s.62-.51.86-.77a4,4,0,0,1,3-1.65A3.36,3.36,0,0,1,30,36.58a3,3,0,0,0,.48.61c.23,0,.59-.46.88-.81A3.51,3.51,0,0,1,34,34.78a2.86,2.86,0,0,1,2.45,1.76,2.8,2.8,0,0,0,.45.65c.16,0,.55-.49.76-.74a3.6,3.6,0,0,1,2.74-1.67,3.35,3.35,0,0,1,2.55,1.48c.58.66.87.93,1.41.93h.15A8.84,8.84,0,0,0,44.77,35c0-.66,0-1.25-.06-1.78a1.41,1.41,0,0,0,.43-.13,4.41,4.41,0,0,0,2.45-2.88,4.57,4.57,0,0,0-.73-3.7,4.7,4.7,0,0,0-6.31-1.3,1,1,0,0,0-.25.19c-.9-.85-1.47-1.38-1.47-2,0-1,1.27-1.42,1.84-1.56s1.13-1.05.32-1.05H26.73c-.81,0-.25.91.32,1.05s1.83.56,1.83,1.56c0,.61-.5,1.12-1.33,1.9a1.33,1.33,0,0,0-.26-.21A4.71,4.71,0,0,0,21,26.37a4.6,4.6,0,0,0-.72,3.7A4.38,4.38,0,0,0,22.69,33Zm22.2-5.06a2.15,2.15,0,0,1,.36,1.73,2,2,0,0,1-1,1.19,8.88,8.88,0,0,0-2.25-3.67A2.27,2.27,0,0,1,44.89,27.89ZM23,27.75A2.29,2.29,0,0,1,25.8,27l-.13.14a9,9,0,0,0-2.19,3.49,1.9,1.9,0,0,1-.89-1.15A2.11,2.11,0,0,1,23,27.75Z"/><path class="cls-2" d="M40.66,42.78a12.34,12.34,0,0,0,2.86-3.28,4.5,4.5,0,0,1-2.4-1.66c-.35-.39-.59-.65-.74-.65s-.57.42-.88.8a3.45,3.45,0,0,1-2.71,1.61,3.06,3.06,0,0,1-2.44-1.83A3.51,3.51,0,0,0,34,37.2a3.56,3.56,0,0,0-.72.73,3.74,3.74,0,0,1-2.57,1.66,2.92,2.92,0,0,1-2.63-1.65c-.38-.55-.55-.75-.74-.75h0c-.31,0-.74.45-1.15.89a4.64,4.64,0,0,1-1.95,1.43,12.24,12.24,0,0,0,2.86,3.27c1,.85,1.84,1.56.42,2.41s-1.13,2.55.71,2.55H39.52c1.85,0,2.13-1.7.71-2.55S39.62,43.63,40.66,42.78Z"/></g></svg>