<svg xmlns="http://www.w3.org/2000/svg" viewBox="0 0 68 68"><defs><style>.cls-1{fill:#8fb3ce;}.cls-2{fill:#fff;}</style></defs><title>icon_item_furniture</title><g id="icon_item_furniture"><rect class="cls-1" width="68" height="68"/><path class="cls-2" d="M46,18.39h0A2.69,2.69,0,0,0,43.8,18a14.22,14.22,0,0,1-3.12.41l-6.06-.06h-.39l-6.91.06A14.22,14.22,0,0,1,24.2,18a2.69,2.69,0,0,0-2.15.43h0a2.68,2.68,0,0,0-.5,3.91l.39.46a20.18,20.18,0,0,1,4.19,5.93,4.21,4.21,0,0,1-.9,4.7,7.51,7.51,0,0,1-2.35,1.53,1.42,1.42,0,0,0-.57,2.19,5.8,5.8,0,0,0,2.46,1.8,28.78,28.78,0,0,0-1.42,11.2h2C25.48,39.91,27.25,39,27.25,39h13.5s1.77.92,1.91,11.12h2a28.78,28.78,0,0,0-1.42-11.2,5.8,5.8,0,0,0,2.46-1.8,1.42,1.42,0,0,0-.57-2.19,7.51,7.51,0,0,1-2.35-1.53,4.21,4.21,0,0,1-.9-4.7,20.18,20.18,0,0,1,4.19-5.93l.39-.46A2.68,2.68,0,0,0,46,18.39Z"/></g></svg>