<svg xmlns="http://www.w3.org/2000/svg" viewBox="0 0 68 68"><defs><style>.cls-1{fill:#fbb186;}.cls-2{fill:#fff;}</style></defs><title>icon_item_food</title><g id="icon_item_food"><rect class="cls-1" width="68" height="68"/><path class="cls-2" d="M38.93,24.49s-5.83,1.66-7.5,0l-11,3.22a2,2,0,0,0-1.26,2.85,41.85,41.85,0,0,0,17.26,18,2,2,0,0,0,2.91-1.16l8.39-25.72a.72.72,0,0,0-.79-.92C44.9,21.05,40.79,22,38.93,24.49Zm-9.17,9.16a2.5,2.5,0,1,1,2.5-2.5A2.5,2.5,0,0,1,29.76,33.65Zm6.67,7.5a2.5,2.5,0,1,1,2.5-2.5A2.49,2.49,0,0,1,36.43,41.15Zm3.33-8.33a2.92,2.92,0,1,1,2.92-2.92A2.91,2.91,0,0,1,39.76,32.82Z"/></g></svg>