<svg xmlns="http://www.w3.org/2000/svg" viewBox="0 0 40 40"><defs><style>.cls-1{fill:#919191;opacity:0;}.cls-2{fill:gray;}</style></defs><title>icon_mkt_love</title><g id="icon_mkt_love"><rect class="cls-1" x="0.03" width="40.01" height="40"/><path class="cls-2" d="M20,29.06a4.14,4.14,0,0,1-2.94-1.21.81.81,0,0,1,1.14-1.15,2.6,2.6,0,0,0,3.59,0L30.52,18A3.2,3.2,0,0,0,26,13.49l-11,11a.84.84,0,0,1-1.15,0L8.41,19.16a4.82,4.82,0,0,1,6.81-6.81l3.11,3.1a.81.81,0,0,1-1.15,1.15l-3.1-3.11A3.2,3.2,0,1,0,9.55,18l4.81,4.81L24.85,12.35a4.82,4.82,0,0,1,6.81,6.81L23,27.85A4.11,4.11,0,0,1,20,29.06Z"/></g></svg>