<svg xmlns="http://www.w3.org/2000/svg" viewBox="0 0 68 68"><defs><style>.cls-1{fill:#c7bc83;}.cls-2{fill:#fff;}</style></defs><title>icon_item_ticket</title><g id="icon_item_ticket"><rect class="cls-1" width="68" height="68"/><path class="cls-2" d="M34.91,27.12a.82.82,0,0,0-.58-.24.8.8,0,0,0-.57.24L24,36.88A.8.8,0,0,0,24,38l5.86,5.87a.83.83,0,0,0,1.15,0l9.76-9.76a.83.83,0,0,0,0-1.15Z"/><path class="cls-2" d="M51.39,27.41l-2.47-2.47a1.06,1.06,0,0,0-1.51,0h0a1.08,1.08,0,0,1-1.51,0L43,22a1.05,1.05,0,0,1,0-1.5A1.08,1.08,0,0,0,43,19l-2.48-2.48a.72.72,0,0,0-1,0L35.9,20.06l0,0,1.14,1.14a.7.7,0,1,1-1,1l-1.13-1.13,0,0L16.72,39.24a.72.72,0,0,0,0,1L19.45,43a.7.7,0,0,0,1,0,2.1,2.1,0,0,1,3,0l1.5,1.5a2.11,2.11,0,0,1,0,3h0a.7.7,0,0,0,0,1l2.72,2.73a.7.7,0,0,0,1,0L46.83,33l-1.11-1.11a.7.7,0,0,1,1-1L47.83,32l3.56-3.57A.7.7,0,0,0,51.39,27.41Zm-13.3-4.17a.7.7,0,0,1,1,0L40.88,25a.7.7,0,0,1-.49,1.2.74.74,0,0,1-.5-.2l-1.8-1.8A.71.71,0,0,1,38.09,23.24Zm3.67,11.88L32,44.88a2.21,2.21,0,0,1-3.13,0L23,39a2.22,2.22,0,0,1,0-3.14l9.75-9.76a2.23,2.23,0,0,1,3.14,0L41.76,32A2.2,2.2,0,0,1,41.76,35.12Zm2.94-5.28a.7.7,0,0,1-1,0l-1.79-1.79a.7.7,0,0,1,1-1l1.8,1.8A.71.71,0,0,1,44.7,29.84Z"/></g></svg>