<svg xmlns="http://www.w3.org/2000/svg" viewBox="0 0 40 40"><defs><style>.cls-1{fill:gray;}</style></defs><title>icon_msg</title><g id="icon_msg"><path class="cls-1" d="M20,6.74c-8.21,0-14.86,5.75-14.86,12.81a11.86,11.86,0,0,0,4.76,9.37A10.13,10.13,0,0,1,6,33.19a17.81,17.81,0,0,0,9-1.56,16.34,16.34,0,0,0,4.93.74c8.21,0,14.86-5.75,14.86-12.82S28.25,6.74,20,6.74Zm-6.32,15.2A1.94,1.94,0,1,1,15.66,20,1.94,1.94,0,0,1,13.72,21.94Zm6.34,0A1.94,1.94,0,1,1,22,20,1.94,1.94,0,0,1,20.06,21.94Zm6.34,0A1.94,1.94,0,1,1,28.34,20,1.94,1.94,0,0,1,26.4,21.94Z"/></g></svg>