<svg xmlns="http://www.w3.org/2000/svg" viewBox="0 0 40 40"><defs><style>.cls-1{fill:#c3c3c3;}</style></defs><title>icon_notice</title><g id="icon_notice"><path class="cls-1" d="M27.9,18.55c-2.82-6.94-4.3-9.64-9.46-9.77-1.84-.06-1.35-1.41-2.76-1s-.25,1.29-1.78,2.4c-4.18,3.07-4,6.14-2.52,13.51.61,3.07-2.09,3.14-1.17,6.15.67,2.21,6.33,3.37,12.47,1.47S32.82,25.19,32.2,23C31.28,19.9,29.07,21.44,27.9,18.55ZM22.13,29.36c-5.47,1.72-9.83.31-10-.24-.24-.92,2-3.81,8.17-5.78s9.65-.92,10,.06C30.48,24.14,27.66,27.71,22.13,29.36Z"/><path class="cls-1" d="M14.51,27.09c.92.92,2.76,1.17,4.61.49,2.09-.8,3.38-2.45,3.13-3.93-.49.12-1,.25-1.66.43A17.81,17.81,0,0,0,14.51,27.09Z"/><path class="cls-1" d="M20,1.5A18.5,18.5,0,1,1,1.5,20,18.52,18.52,0,0,1,20,1.5M20,0A20,20,0,1,0,40,20,20,20,0,0,0,20,0Z"/></g></svg>