<svg xmlns="http://www.w3.org/2000/svg" viewBox="0 0 80 80"><defs><style>.cls-1{fill:#d2d2d2;}</style></defs><title>icon_empty_msg</title><g id="icon_empty_msg"><path class="cls-1" d="M40.1,6.46C19.33,6.46,2.5,21,2.5,38.87c0,9.35,4.57,17.87,12.05,23.69a25.73,25.73,0,0,1-10,10.8s12.25,1.45,22.85-4A41.05,41.05,0,0,0,39.9,71.28c20.77,0,37.6-14.54,37.6-32.41C77.71,21,60.88,6.46,40.1,6.46Zm-16,38.44A4.9,4.9,0,1,1,29,40,4.9,4.9,0,0,1,24.12,44.9Zm16,0a4.9,4.9,0,1,1,4.9-4.9A4.9,4.9,0,0,1,40.16,44.9Zm16,0A4.9,4.9,0,1,1,61.1,40,4.9,4.9,0,0,1,56.19,44.9Z"/></g></svg>