<svg xmlns="http://www.w3.org/2000/svg" viewBox="0 0 68 68"><defs><style>.cls-1{fill:#ceabcc;}.cls-2{fill:#fff;}</style></defs><title>icon_item_3c</title><g id="icon_item_3c"><rect class="cls-1" width="68" height="68"/><path class="cls-2" d="M52.87,28.85,39.15,15.13a1.4,1.4,0,0,0-2,0l-22,22a1.4,1.4,0,0,0,0,2L28.85,52.87a1.4,1.4,0,0,0,2,0l22-22A1.4,1.4,0,0,0,52.87,28.85ZM32.79,44.06a6.26,6.26,0,1,1,0-8.85A6.25,6.25,0,0,1,32.79,44.06ZM49.38,30.61l-8.07,8.08a.73.73,0,0,1-1,0L29.36,27.74a.7.7,0,0,1,0-1l8.08-8.07a.7.7,0,0,1,1,0L49.38,29.61A.7.7,0,0,1,49.38,30.61Z"/><ellipse class="cls-2" cx="28.36" cy="39.64" rx="4.67" ry="4.68" transform="translate(-19.72 31.66) rotate(-44.99)"/></g></svg>