<svg xmlns="http://www.w3.org/2000/svg" viewBox="0 0 40 40"><defs><style>.cls-1{fill:#ff7150;}.cls-2{fill:#fff;}</style></defs><title>icon_menu_o</title><g id="icon_menu_o"><circle class="cls-1" cx="20" cy="20" r="20"/><path class="cls-2" d="M29.42,18.39H10.58a1.58,1.58,0,1,0,0,3.16H29.42A1.61,1.61,0,0,0,31,20,1.57,1.57,0,0,0,29.42,18.39Zm-18.84-3.1H29.42A1.57,1.57,0,0,0,31,13.71a1.61,1.61,0,0,0-1.58-1.58H10.58A1.57,1.57,0,0,0,9,13.71,1.7,1.7,0,0,0,10.58,15.29Zm18.84,9.42H10.58A1.57,1.57,0,0,0,9,26.29a1.61,1.61,0,0,0,1.58,1.58H29.42A1.61,1.61,0,0,0,31,26.29,1.53,1.53,0,0,0,29.42,24.71Z"/></g></svg>