<svg xmlns="http://www.w3.org/2000/svg" viewBox="0 0 30 30"><defs><style>.cls-1{fill:#fff;}.cls-2{fill:#ad639d;}</style></defs><title>icon_phone</title><g id="icon_phone"><path class="cls-1" d="M17.52,6.27H8.33A2.61,2.61,0,0,0,5.72,8.88v16A2.61,2.61,0,0,0,8.33,27.5h9.19a2.61,2.61,0,0,0,2.62-2.61v-16A2.61,2.61,0,0,0,17.52,6.27ZM12.93,25.9a1.61,1.61,0,1,1,1.6-1.6A1.61,1.61,0,0,1,12.93,25.9Zm5.2-4.53H7.72v-12H18.13Z"/><circle class="cls-1" cx="18.13" cy="8.65" r="6.15"/><circle class="cls-2" cx="18.13" cy="8.65" r="5.52"/><path class="cls-1" d="M18.13,4.32a4.33,4.33,0,1,0,4.34,4.33A4.33,4.33,0,0,0,18.13,4.32Zm-.56,6.76-2.24-2.6,2.24,1,3.95-2.7Z"/></g></svg>