<svg xmlns="http://www.w3.org/2000/svg" viewBox="0 0 68 68"><defs><style>.cls-1{fill:#e0ceb0;}.cls-2{fill:#fff;}</style></defs><title>icon_item_pet</title><g id="icon_item_pet"><rect class="cls-1" width="68" height="68"/><path class="cls-2" d="M41.18,39.23c-2.49-2.93-3.35-4-3.35-4h0a4.86,4.86,0,0,0-7.53-.82,5.16,5.16,0,0,0-.66.82s-.87,1.09-3.36,4-2.37,4.94-1.45,5.93a2.59,2.59,0,0,0,3.6-.41,2.12,2.12,0,0,1,2-.72,1.78,1.78,0,0,1,1.66,1.26,1.45,1.45,0,0,0,1.68,1.33,1.46,1.46,0,0,0,1.69-1.33A1.75,1.75,0,0,1,37.07,44a2.14,2.14,0,0,1,2,.72,2.57,2.57,0,0,0,3.59.41C43.55,44.17,43.62,42.11,41.18,39.23Z"/><ellipse class="cls-2" cx="29.03" cy="26.21" rx="3.75" ry="4.71" transform="translate(-3.65 4.73) rotate(-8.76)"/><ellipse class="cls-2" cx="38.43" cy="26.21" rx="4.71" ry="3.75" transform="translate(4.25 57.76) rotate(-77)"/><ellipse class="cls-2" cx="23.88" cy="34.78" rx="2.93" ry="3.72" transform="translate(-14.19 16.6) rotate(-30)"/><ellipse class="cls-2" cx="43.85" cy="34.78" rx="3.72" ry="2.93" transform="translate(-6.79 58.62) rotate(-63.63)"/></g></svg>