<svg xmlns="http://www.w3.org/2000/svg" viewBox="0 0 68 68"><defs><style>.cls-1{fill:#3bdadd;}.cls-2{fill:#fff;}</style></defs><title>icon_item_fitness</title><g id="icon_item_fitness"><rect class="cls-1" width="68" height="68"/><circle class="cls-2" cx="34" cy="23.21" r="4.25"/><path class="cls-2" d="M22.39,49H35.48a1.75,1.75,0,0,0,1.76-1.75h0a1.76,1.76,0,0,0-1.76-1.76H29.73a.42.42,0,0,1-.42-.42V44.4a.42.42,0,0,1,.42-.43h4.32a6.89,6.89,0,0,1,3.5.68,3.06,3.06,0,0,1,1.09,3.88c-.11.24.14.51.41.51h7.38a.43.43,0,0,0,.42-.41c.2-4.54-8.38-9.59-8.38-9.59V36.88a.57.57,0,0,1,.91-.46,24.77,24.77,0,0,0,8.93,4.09,1.44,1.44,0,0,0,1.54-.61l0,0a1.44,1.44,0,0,0-.82-2.2,16.5,16.5,0,0,1-10.6-8A1.42,1.42,0,0,0,37.26,29h-7a1.42,1.42,0,0,0-1.3.87c-2.12,4.91-7.35,7.06-10.06,7.87a1.46,1.46,0,0,0-.89,2h0a1.46,1.46,0,0,0,1.53.78c3.14-.53,7.12-3.07,8.86-4.27a.57.57,0,0,1,.89.47V39c-2.85,2.85-6.49,4.64-7.95,6.19a1.4,1.4,0,0,0-.39,1v1.43A1.42,1.42,0,0,0,22.39,49Z"/></g></svg>