<?xml version="1.0" encoding="utf-8"?>
<!-- Generator: Adobe Illustrator 21.1.0, SVG Export Plug-In . SVG Version: 6.00 Build 0)  -->
<svg version="1.1" id="圖層_1" xmlns="http://www.w3.org/2000/svg" xmlns:xlink="http://www.w3.org/1999/xlink" x="0px" y="0px"
	 viewBox="0 0 50 50" style="enable-background:new 0 0 50 50;" xml:space="preserve">
<style type="text/css">
	.st0{fill:#00C300;}
	.st1{fill:#FFFFFF;}
</style>
<rect class="st0" width="50" height="50"/>
<title>social_line</title>
<g id="icon_social">
	<path class="st1" d="M43,24.2c0-8-8.1-14.6-18-14.6S7,16.2,7,24.2c0,7.2,6.4,13.3,15,14.4c0.6,0.1,1.4,0.4,1.6,0.9
		c0.1,0.5,0.2,1.1,0.1,1.6l-0.3,1.5c-0.1,0.5-0.4,1.8,1.6,1s10.4-6.1,14.1-10.4l0,0C41.5,30.8,42.9,27.6,43,24.2z M18,29h-3.6
		c-0.5,0-0.9-0.4-0.9-0.9l0,0v-7.2c0-0.5,0.4-0.9,0.9-0.9c0.5,0,0.9,0.4,0.9,0.9l0,0v6.2H18c0.5,0,1,0.4,1,1S18.5,29,18,29z
		 M21.7,28c0,0.5-0.4,0.9-0.9,0.9c-0.5,0-0.9-0.4-0.9-0.9c0,0,0,0,0,0v-7.1c0-0.5,0.4-0.9,0.9-0.9c0.5,0,0.9,0.4,0.9,0.9
		c0,0,0,0,0,0V28z M30.3,28c0,0.5-0.4,0.9-0.9,1c-0.3,0-0.6-0.1-0.8-0.4l-3.7-5V28c0,0.5-0.4,0.9-0.9,0.9S23,28.5,23,28v-7.1
		c0-0.5,0.4-0.9,0.9-1c0.3,0,0.6,0.1,0.8,0.4l3.7,5v-4.4c0-0.5,0.4-0.9,0.9-0.9c0.5,0,0.9,0.4,0.9,0.9c0,0,0,0,0,0L30.3,28z
		 M36,23.5c0.5,0,0.9,0.4,0.9,0.9c0,0.5-0.4,0.9-0.9,0.9c0,0,0,0,0,0h-2.6v1.7H36c0.5,0,1,0.4,1,0.9c0,0.5-0.4,1-1,1h-3.5
		c-0.5,0-0.9-0.4-0.9-0.9c0,0,0,0,0,0v-3.6l0,0v-3.6c0-0.5,0.4-0.9,0.9-0.9l0,0H36c0.5,0,0.9,0.4,0.9,0.9c0,0.5-0.4,0.9-0.9,0.9
		c0,0,0,0,0,0h-2.6v1.7L36,23.5z"/>
</g>
</svg>
